<svg width="15" height="7" viewBox="0 0 15 7" fill="none" xmlns="http://www.w3.org/2000/svg">
<path d="M1.63434 0.4C2.43968 0.4 3.05568 0.546666 3.48234 0.84C3.91434 1.13333 4.13034 1.592 4.13034 2.216C4.13034 2.54133 4.07168 2.82133 3.95434 3.056C3.84234 3.28533 3.67701 3.47467 3.45834 3.624C3.23968 3.768 2.97301 3.87467 2.65834 3.944C2.34368 4.01333 1.98368 4.048 1.57834 4.048H1.07434V6H0.0663438V0.536C0.30101 0.482666 0.559677 0.448 0.842344 0.432C1.13034 0.410666 1.39434 0.4 1.63434 0.4ZM1.70634 1.272C1.45034 1.272 1.23968 1.28 1.07434 1.296V3.184H1.56234C2.04768 3.184 2.42101 3.11733 2.68234 2.984C2.94368 2.84533 3.07434 2.58667 3.07434 2.208C3.07434 2.02667 3.03968 1.87467 2.97034 1.752C2.90101 1.62933 2.80501 1.53333 2.68234 1.464C2.55968 1.39467 2.41301 1.34667 2.24234 1.32C2.07701 1.288 1.89834 1.272 1.70634 1.272ZM6.05872 5.168C6.11739 5.17333 6.19472 5.17867 6.29072 5.184C6.38672 5.184 6.51739 5.184 6.68272 5.184C7.36005 5.184 7.86405 5.01333 8.19472 4.672C8.53072 4.32533 8.69872 3.84267 8.69872 3.224C8.69872 2.59467 8.53605 2.112 8.21072 1.776C7.88539 1.44 7.38139 1.272 6.69872 1.272C6.40005 1.272 6.18672 1.28 6.05872 1.296V5.168ZM9.75472 3.224C9.75472 3.704 9.68005 4.12267 9.53072 4.48C9.38139 4.832 9.16805 5.128 8.89072 5.368C8.61872 5.60267 8.28805 5.77867 7.89872 5.896C7.51472 6.008 7.08805 6.064 6.61872 6.064C6.39472 6.064 6.14139 6.05333 5.85872 6.032C5.57605 6.016 5.30672 5.97867 5.05072 5.92V0.536C5.30672 0.477333 5.57872 0.44 5.86672 0.424C6.15472 0.408 6.41072 0.4 6.63472 0.4C7.09872 0.4 7.52272 0.456 7.90672 0.568C8.29072 0.674666 8.61872 0.845333 8.89072 1.08C9.16805 1.30933 9.38139 1.60267 9.53072 1.96C9.68005 2.312 9.75472 2.73333 9.75472 3.224ZM10.8554 6V0.456H14.3594V1.312H11.8634V2.728H14.0794V3.584H11.8634V6H10.8554Z" fill="white"/>
</svg>
