<svg width="21" height="21" viewBox="0 0 21 21" fill="none" xmlns="http://www.w3.org/2000/svg">
<path d="M11.375 6.125V2.625H8.375C6.48938 2.625 5.54657 2.625 4.96079 3.21079C4.375 3.79657 4.375 4.73938 4.375 6.625V14.375C4.375 16.2606 4.375 17.2034 4.96079 17.7892C5.54657 18.375 6.48938 18.375 8.375 18.375H12.625C14.5106 18.375 15.4534 18.375 16.0392 17.7892C16.625 17.2034 16.625 16.2606 16.625 14.375V7.875H13.125C12.3 7.875 11.8876 7.875 11.6313 7.61872C11.375 7.36244 11.375 6.94996 11.375 6.125Z" fill="#E8F0FF"/>
<path d="M11.5251 2.625H7.875C6.22508 2.625 5.40013 2.625 4.88756 3.13756C4.375 3.65013 4.375 4.47508 4.375 6.125V14.875C4.375 16.5249 4.375 17.3499 4.88756 17.8624C5.40013 18.375 6.22508 18.375 7.875 18.375H13.125C14.7749 18.375 15.5999 18.375 16.1124 17.8624C16.625 17.3499 16.625 16.5249 16.625 14.875V7.72487C16.625 7.36722 16.625 7.18839 16.5584 7.02759C16.4918 6.86679 16.3653 6.74034 16.1124 6.48744L12.7626 3.13756C12.5097 2.88466 12.3832 2.75821 12.2224 2.69161C12.0616 2.625 11.8828 2.625 11.5251 2.625Z" stroke="#044766" stroke-width="1.2"/>
<path d="M7.875 11.375L13.125 11.375" stroke="#044766" stroke-width="1.2" stroke-linecap="round"/>
<path d="M7.875 14.875L11.375 14.875" stroke="#044766" stroke-width="1.2" stroke-linecap="round"/>
<path d="M11.375 2.625V6.125C11.375 6.94996 11.375 7.36244 11.6313 7.61872C11.8876 7.875 12.3 7.875 13.125 7.875H16.625" stroke="#044766" stroke-width="1.2"/>
</svg>
