<svg width="29" height="28" viewBox="0 0 29 28" fill="none" xmlns="http://www.w3.org/2000/svg">
<path d="M17.625 9.33325C17.625 10.9737 16.2426 12.3333 14.5 12.3333C12.7574 12.3333 11.375 10.9737 11.375 9.33325C11.375 7.69279 12.7574 6.33325 14.5 6.33325C16.2426 6.33325 17.625 7.69279 17.625 9.33325Z" fill="#E8F0FF" stroke="#044766" stroke-linecap="round"/>
<path d="M16.5409 7.54819C16.7879 7.13501 17.1581 6.7991 17.6067 6.58548C18.0555 6.37178 18.5612 6.29092 19.0591 6.35421C19.557 6.4175 20.0223 6.62172 20.3965 6.93864C20.7706 7.25539 21.0367 7.67003 21.164 8.12874C21.2912 8.58727 21.2749 9.0717 21.1167 9.52161C20.9584 9.97173 20.6645 10.3692 20.2692 10.6621C19.8737 10.9551 19.3951 11.1296 18.8939 11.1613C18.3926 11.1931 17.8938 11.0804 17.4609 10.8391" stroke="#044766"/>
<path d="M12.4591 7.54819C12.2121 7.13501 11.8419 6.7991 11.3933 6.58548C10.9445 6.37178 10.4388 6.29092 9.94089 6.35421C9.44298 6.4175 8.97774 6.62172 8.60346 6.93864C8.22937 7.25539 7.96332 7.67003 7.83603 8.12874C7.70877 8.58727 7.72513 9.0717 7.88331 9.52161C8.04156 9.97173 8.33549 10.3692 8.73082 10.6621C9.12632 10.9551 9.60487 11.1296 10.1061 11.1613C10.6074 11.1931 11.1062 11.0804 11.5391 10.8391" stroke="#044766"/>
<path d="M14.5013 14.5833C19.5725 14.5833 20.7741 18.6592 21.0587 20.5906C21.1393 21.137 20.6994 21.5833 20.1471 21.5833H8.85547C8.30318 21.5833 7.86333 21.137 7.94386 20.5906C8.22854 18.6592 9.43007 14.5833 14.5013 14.5833Z" fill="#E8F0FF" stroke="#044766" stroke-linecap="round"/>
<path d="M23.3596 18.1615L23.8456 18.044L23.3596 18.1615ZM15.8125 14.6836L15.4492 14.3401L14.7992 15.0275L15.7333 15.1773L15.8125 14.6836ZM20.7597 19.2501L20.2807 19.3936L20.3875 19.7501H20.7597V19.2501ZM18.7281 13.9167C20.0621 13.9167 20.982 14.5716 21.6374 15.4542C22.3038 16.3516 22.6763 17.4632 22.8736 18.279L23.8456 18.044C23.6347 17.1718 23.2222 15.9111 22.4402 14.858C21.6473 13.7903 20.4555 12.9167 18.7281 12.9167V13.9167ZM16.1758 15.0272C16.7946 14.3728 17.6129 13.9167 18.7281 13.9167V12.9167C17.2978 12.9167 16.2274 13.5172 15.4492 14.3401L16.1758 15.0272ZM15.7333 15.1773C18.5771 15.6336 19.7689 17.6854 20.2807 19.3936L21.2386 19.1066C20.6712 17.2129 19.2713 14.7322 15.8917 14.19L15.7333 15.1773ZM22.4525 18.7501H20.7597V19.7501H22.4525V18.7501ZM22.8736 18.279C22.9275 18.5019 22.7631 18.7501 22.4525 18.7501V19.7501C23.3279 19.7501 24.0705 18.974 23.8456 18.044L22.8736 18.279Z" fill="#044766"/>
<path d="M13.1858 14.6836L13.265 15.1773L14.1991 15.0275L13.5491 14.3401L13.1858 14.6836ZM5.63865 18.1615L5.15266 18.044L5.63865 18.1615ZM8.23863 19.2501V19.7501H8.61078L8.71759 19.3936L8.23863 19.2501ZM10.2702 13.9167C11.3854 13.9167 12.2037 14.3728 12.8225 15.0272L13.5491 14.3401C12.771 13.5172 11.7005 12.9167 10.2702 12.9167V13.9167ZM6.12464 18.279C6.32195 17.4632 6.69452 16.3516 7.3609 15.4542C8.01634 14.5716 8.9362 13.9167 10.2702 13.9167V12.9167C8.54279 12.9167 7.35098 13.7903 6.55806 14.858C5.77607 15.9111 5.36359 17.1718 5.15266 18.044L6.12464 18.279ZM6.5458 18.7501C6.23518 18.7501 6.07076 18.5019 6.12464 18.279L5.15266 18.044C4.92775 18.974 5.67037 19.7501 6.5458 19.7501V18.7501ZM8.23863 18.7501H6.5458V19.7501H8.23863V18.7501ZM8.71759 19.3936C9.22943 17.6854 10.4212 15.6336 13.265 15.1773L13.1066 14.19C9.72699 14.7322 8.3271 17.2129 7.75967 19.1066L8.71759 19.3936Z" fill="#044766"/>
</svg>
