<svg width="19" height="19" viewBox="0 0 19 19" fill="none" xmlns="http://www.w3.org/2000/svg">
<path fill-rule="evenodd" clip-rule="evenodd" d="M11.1898 2.66104L11.1898 2.66106L11.1898 2.6611C11.2212 2.97525 11.2369 3.13232 11.2696 3.23374C11.4589 3.8204 12.1287 4.09784 12.6773 3.8168C12.7721 3.76822 12.8943 3.66825 13.1387 3.46831C13.268 3.36247 13.3327 3.30955 13.3949 3.27219C13.7427 3.0633 14.1822 3.08522 14.5075 3.32768C14.5656 3.37104 14.6247 3.43013 14.7429 3.54832L14.7429 3.54833L15.4503 4.25565C15.5685 4.37385 15.6276 4.43295 15.6709 4.49112C15.9134 4.81638 15.9353 5.25589 15.7264 5.60367C15.689 5.66586 15.6361 5.73054 15.5303 5.85992C15.3303 6.1043 15.2303 6.22649 15.1818 6.32134C14.9007 6.86996 15.1782 7.53974 15.7648 7.72896C15.8662 7.76167 16.0233 7.77738 16.3375 7.8088C16.5039 7.82544 16.5871 7.83376 16.6574 7.85132C17.0511 7.94953 17.3463 8.2758 17.4049 8.67724C17.4154 8.74902 17.4154 8.83261 17.4154 8.99978V10.0002C17.4154 10.1672 17.4154 10.2508 17.4049 10.3225C17.3464 10.724 17.051 11.0503 16.6574 11.1485C16.587 11.1661 16.5039 11.1744 16.3376 11.191L16.3376 11.191C16.0236 11.2224 15.8666 11.2381 15.7653 11.2708C15.1785 11.46 14.901 12.1299 15.1821 12.6786C15.2307 12.7734 15.3306 12.8955 15.5304 13.1397L15.5304 13.1397C15.6362 13.269 15.689 13.3336 15.7264 13.3957C15.9353 13.7435 15.9134 14.1832 15.6709 14.5085C15.6276 14.5666 15.5685 14.6256 15.4504 14.7437L14.743 15.4512C14.6248 15.5694 14.5657 15.6284 14.5075 15.6718C14.1822 15.9143 13.7427 15.9362 13.3949 15.7273C13.3328 15.6899 13.2681 15.637 13.1387 15.5312C12.8943 15.3312 12.7722 15.2313 12.6773 15.1827C12.1287 14.9017 11.4589 15.1791 11.2697 15.7657C11.237 15.8672 11.2213 16.0243 11.1898 16.3386L11.1898 16.3386C11.1732 16.5051 11.1649 16.5883 11.1473 16.6587C11.0491 17.0523 10.7228 17.3475 10.3215 17.4061C10.2496 17.4166 10.166 17.4166 9.99874 17.4166H8.99856C8.83139 17.4166 8.7478 17.4166 8.67602 17.4061C8.27458 17.3476 7.9483 17.0523 7.8501 16.6587C7.83253 16.5883 7.82422 16.5051 7.80758 16.3388C7.77616 16.0246 7.76045 15.8675 7.72773 15.766C7.53851 15.1794 6.86875 14.902 6.32013 15.183C6.22527 15.2316 6.10307 15.3316 5.85867 15.5315C5.72929 15.6374 5.66459 15.6903 5.6024 15.7277C5.25463 15.9365 4.81513 15.9146 4.48987 15.6722C4.4317 15.6288 4.3726 15.5697 4.2544 15.4515L4.25439 15.4515L3.54708 14.7442C3.42888 14.626 3.36978 14.5669 3.32642 14.5087C3.08397 14.1835 3.06204 13.744 3.27093 13.3962C3.30828 13.334 3.36121 13.2693 3.46706 13.1399L3.46707 13.1399C3.66702 12.8955 3.76699 12.7733 3.81558 12.6785C4.09661 12.1299 3.81917 11.4601 3.23252 11.2709C3.1311 11.2382 2.97401 11.2224 2.65983 11.191L2.65981 11.191C2.4935 11.1744 2.41034 11.1661 2.33996 11.1485C1.94634 11.0503 1.65105 10.724 1.5925 10.3226C1.58203 10.2508 1.58203 10.1672 1.58203 10.0001V8.99986C1.58203 8.83261 1.58203 8.74899 1.59251 8.67717C1.65109 8.27579 1.94632 7.94956 2.33989 7.85133C2.41031 7.83376 2.49351 7.82544 2.65993 7.8088C2.97428 7.77736 3.13145 7.76164 3.23293 7.7289C3.81947 7.53964 4.09685 6.86999 3.81593 6.32141C3.76733 6.2265 3.66729 6.10423 3.46721 5.85969C3.36126 5.7302 3.30829 5.66545 3.27091 5.60321C3.0621 5.25548 3.08402 4.81607 3.32639 4.49085C3.36977 4.43264 3.42892 4.37349 3.54721 4.2552L3.54721 4.2552L4.25442 3.54799C4.37263 3.42978 4.43174 3.37067 4.4899 3.32731C4.81516 3.08487 5.25467 3.06294 5.60244 3.27183C5.66463 3.30918 5.72934 3.36213 5.85876 3.46801L5.85877 3.46802C6.10309 3.66792 6.22525 3.76787 6.32004 3.81644C6.86872 4.09758 7.53863 3.82009 7.72781 3.23332C7.76049 3.13195 7.77619 2.97496 7.80759 2.66096L7.80759 2.66095L7.8076 2.66094C7.82422 2.49472 7.83253 2.41161 7.85007 2.34126C7.94826 1.94757 8.2746 1.65224 8.67611 1.59371C8.74785 1.58325 8.83138 1.58325 8.99844 1.58325H9.99885C10.166 1.58325 10.2496 1.58325 10.3214 1.59372C10.7228 1.65227 11.0491 1.94756 11.1473 2.34118C11.1649 2.41156 11.1732 2.49472 11.1898 2.66104ZM9.4987 12.6666C11.2476 12.6666 12.6654 11.2488 12.6654 9.49992C12.6654 7.75102 11.2476 6.33325 9.4987 6.33325C7.7498 6.33325 6.33203 7.75102 6.33203 9.49992C6.33203 11.2488 7.7498 12.6666 9.4987 12.6666Z" fill="#E8F0FF"/>
<path d="M11.1898 2.66106L11.7883 2.61793L11.7871 2.60224L11.7852 2.58664L11.1898 2.66106ZM11.1898 2.66104L10.5928 2.72073L10.5935 2.7281L10.5944 2.73546L11.1898 2.66104ZM11.1898 2.6611L10.5914 2.70423L10.592 2.71253L10.5928 2.7208L11.1898 2.6611ZM11.2696 3.23374L11.8407 3.04956V3.04956L11.2696 3.23374ZM12.6773 3.8168L12.9508 4.35082L12.9508 4.35082L12.6773 3.8168ZM13.1387 3.46831L12.7587 3.00394V3.00394L13.1387 3.46831ZM13.3949 3.27219L13.7039 3.78654L13.7039 3.78654L13.3949 3.27219ZM14.5075 3.32768L14.8661 2.84663L14.8661 2.84663L14.5075 3.32768ZM14.7429 3.54832L15.1985 3.15784L15.1835 3.14034L15.1672 3.12405L14.7429 3.54832ZM14.7429 3.54833L14.2874 3.9388L14.3024 3.9563L14.3187 3.97259L14.7429 3.54833ZM15.4503 4.25565L15.026 4.67992L15.026 4.67992L15.4503 4.25565ZM15.6709 4.49112L16.152 4.13253L16.152 4.13252L15.6709 4.49112ZM15.7264 5.60367L15.212 5.29473L15.212 5.29473L15.7264 5.60367ZM15.5303 5.85992L15.0659 5.47997L15.5303 5.85992ZM15.1818 6.32134L14.6477 6.0478V6.0478L15.1818 6.32134ZM15.7648 7.72896L15.949 7.15793L15.949 7.15793L15.7648 7.72896ZM16.3375 7.8088L16.2778 8.40583H16.2778L16.3375 7.8088ZM16.6574 7.85132L16.5122 8.43347H16.5122L16.6574 7.85132ZM17.4049 8.67724L17.9986 8.59063V8.59063L17.4049 8.67724ZM17.4049 10.3225L17.9986 10.4091V10.4091L17.4049 10.3225ZM16.6574 11.1485L16.5122 10.5664H16.5122L16.6574 11.1485ZM16.3376 11.191L16.2779 10.594L16.2714 10.5947L16.3376 11.191ZM16.3376 11.191L16.3973 11.7881L16.4039 11.7874L16.3376 11.191ZM15.7653 11.2708L15.5812 10.6997H15.5812L15.7653 11.2708ZM15.1821 12.6786L14.6482 12.9522V12.9522L15.1821 12.6786ZM15.5304 13.1397L16.0104 12.7797L16.0028 12.7695L15.9948 12.7597L15.5304 13.1397ZM15.5304 13.1397L15.0504 13.4997L15.058 13.5098L15.066 13.5196L15.5304 13.1397ZM15.7264 13.3957L16.2407 13.0867L16.2407 13.0867L15.7264 13.3957ZM15.6709 14.5085L16.1519 14.8671L16.1519 14.8671L15.6709 14.5085ZM14.5075 15.6718L14.1489 15.1907L14.1489 15.1908L14.5075 15.6718ZM13.3949 15.7273L13.086 16.2416L13.086 16.2416L13.3949 15.7273ZM13.1387 15.5312L13.5187 15.0668L13.5187 15.0668L13.1387 15.5312ZM12.6773 15.1827L12.9509 14.6487L12.9509 14.6487L12.6773 15.1827ZM11.2697 15.7657L10.6987 15.5816L11.2697 15.7657ZM11.1898 16.3386L11.7817 16.4372L11.7849 16.4178L11.7869 16.3983L11.1898 16.3386ZM11.1898 16.3386L10.598 16.2399L10.5948 16.2593L10.5928 16.2789L11.1898 16.3386ZM11.1473 16.6587L11.7294 16.804V16.804L11.1473 16.6587ZM10.3215 17.4061L10.4081 17.9998H10.4081L10.3215 17.4061ZM8.67602 17.4061L8.76262 16.8124L8.76262 16.8124L8.67602 17.4061ZM7.8501 16.6587L8.43225 16.5134L7.8501 16.6587ZM7.80758 16.3388L8.40461 16.2791V16.2791L7.80758 16.3388ZM7.72773 15.766L8.29876 15.5818V15.5818L7.72773 15.766ZM6.32013 15.183L6.59366 15.717L6.59366 15.717L6.32013 15.183ZM5.85867 15.5315L6.23862 15.9959L6.23862 15.9959L5.85867 15.5315ZM5.6024 15.7277L5.29347 15.2133H5.29346L5.6024 15.7277ZM4.48987 15.6722L4.13128 16.1532L4.13129 16.1532L4.48987 15.6722ZM4.2544 15.4515L3.83013 15.8758L3.83014 15.8758L4.2544 15.4515ZM4.25439 15.4515L3.83012 15.8758L4.25439 15.4515ZM3.54708 14.7442L3.97135 14.3199L3.54708 14.7442ZM3.32642 14.5087L2.84536 14.8673L2.84536 14.8673L3.32642 14.5087ZM3.27093 13.3962L2.75658 13.0872L2.75658 13.0872L3.27093 13.3962ZM3.46706 13.1399L3.93143 13.5199L3.93946 13.5101L3.94706 13.4999L3.46706 13.1399ZM3.46707 13.1399L3.0027 12.76L2.99467 12.7698L2.98707 12.7799L3.46707 13.1399ZM3.81558 12.6785L4.34959 12.952L4.34959 12.952L3.81558 12.6785ZM3.23252 11.2709L3.04834 11.8419H3.04834L3.23252 11.2709ZM2.65983 11.191L2.58541 11.7864L2.59276 11.7873L2.60013 11.7881L2.65983 11.191ZM2.65981 11.191L2.73423 10.5957L2.72688 10.5947L2.71951 10.594L2.65981 11.191ZM2.33996 11.1485L2.19472 11.7307L2.19472 11.7307L2.33996 11.1485ZM1.5925 10.3226L0.998782 10.4092L1.5925 10.3226ZM1.59251 8.67717L2.18622 8.76381L2.18622 8.76381L1.59251 8.67717ZM2.33989 7.85133L2.1946 7.26919H2.1946L2.33989 7.85133ZM2.65993 7.8088L2.71963 8.40582H2.71963L2.65993 7.8088ZM3.23293 7.7289L3.04868 7.15789H3.04868L3.23293 7.7289ZM3.81593 6.32141L3.28188 6.59489V6.59489L3.81593 6.32141ZM3.46721 5.85969L3.93158 5.47975L3.93158 5.47975L3.46721 5.85969ZM3.27091 5.60321L2.75653 5.91209L2.75653 5.9121L3.27091 5.60321ZM3.32639 4.49085L2.84529 4.13231L2.84529 4.13232L3.32639 4.49085ZM3.54721 4.2552L3.12295 3.83093L3.12295 3.83093L3.54721 4.2552ZM3.54721 4.2552L3.97148 4.67946V4.67946L3.54721 4.2552ZM4.25442 3.54799L3.83016 3.12372L4.25442 3.54799ZM4.4899 3.32731L4.13132 2.84625L4.4899 3.32731ZM5.60244 3.27183L5.2935 3.78618L5.2935 3.78618L5.60244 3.27183ZM5.85876 3.46801L5.47874 3.93248L5.48807 3.93981L5.85876 3.46801ZM5.85877 3.46802L6.23879 3.00356L6.22946 2.99623L5.85877 3.46802ZM6.32004 3.81644L6.59365 3.28246L6.59365 3.28246L6.32004 3.81644ZM7.72781 3.23332L8.29886 3.41744L8.29887 3.41744L7.72781 3.23332ZM7.80759 2.66096L7.21322 2.57898L7.21169 2.5901L7.21057 2.60126L7.80759 2.66096ZM7.80759 2.66095L8.40202 2.74294L8.40296 2.73537L7.80759 2.66095ZM7.8076 2.66094L8.40296 2.73536L8.40388 2.72801L8.40462 2.72064L7.8076 2.66094ZM7.85007 2.34126L8.43224 2.48646L8.43224 2.48646L7.85007 2.34126ZM8.67611 1.59371L8.58956 0.999984L8.58956 0.999984L8.67611 1.59371ZM10.3214 1.59372L10.2348 2.18744L10.2348 2.18744L10.3214 1.59372ZM11.1473 2.34118L11.7295 2.19594L11.7295 2.19594L11.1473 2.34118ZM11.7852 2.58664L11.7852 2.58661L10.5944 2.73546L10.5944 2.73548L11.7852 2.58664ZM11.7883 2.61797L11.7883 2.61793L10.5914 2.70419L10.5914 2.70423L11.7883 2.61797ZM11.8407 3.04956C11.8416 3.05256 11.835 3.03208 11.8242 2.9493C11.8137 2.86932 11.8029 2.7623 11.7868 2.60139L10.5928 2.7208C10.6202 2.99526 10.6408 3.23873 10.6986 3.41792L11.8407 3.04956ZM12.4037 3.28279C12.1843 3.3952 11.9164 3.28423 11.8407 3.04956L10.6986 3.41792C11.0014 4.35658 12.073 4.80047 12.9508 4.35082L12.4037 3.28279ZM12.7587 3.00394C12.6336 3.10635 12.5503 3.17441 12.4863 3.22356C12.4201 3.27444 12.4009 3.28422 12.4037 3.28279L12.9508 4.35082C13.1184 4.26497 13.3051 4.10737 13.5186 3.93269L12.7587 3.00394ZM13.086 2.75785C12.9772 2.82318 12.8723 2.91104 12.7587 3.00394L13.5186 3.93269C13.6638 3.8139 13.6883 3.79591 13.7039 3.78654L13.086 2.75785ZM14.8661 2.84663C14.3456 2.45869 13.6424 2.42361 13.086 2.75785L13.7039 3.78654C13.843 3.70298 14.0188 3.71175 14.1489 3.80874L14.8661 2.84663ZM15.1672 3.12405C15.0634 3.02032 14.9678 2.92247 14.8661 2.84663L14.1489 3.80874C14.1635 3.81961 14.186 3.83994 14.3187 3.97258L15.1672 3.12405ZM15.1985 3.15785L15.1985 3.15784L14.2874 3.93879L14.2874 3.9388L15.1985 3.15785ZM15.8745 3.83139L15.1672 3.12406L14.3187 3.97259L15.026 4.67992L15.8745 3.83139ZM16.152 4.13252C16.0761 4.03079 15.9783 3.93514 15.8745 3.83139L15.026 4.67992C15.1586 4.81257 15.179 4.83512 15.1899 4.84971L16.152 4.13252ZM16.2407 5.91261C16.575 5.35617 16.5399 4.65295 16.152 4.13253L15.1899 4.8497C15.2868 4.97981 15.2956 5.15562 15.212 5.29473L16.2407 5.91261ZM15.9946 6.23986C16.0876 6.12631 16.1754 6.02139 16.2407 5.91261L15.212 5.29473C15.2027 5.31032 15.1847 5.33478 15.0659 5.47997L15.9946 6.23986ZM15.7158 6.59488C15.7143 6.59768 15.7241 6.5785 15.775 6.5123C15.8242 6.44833 15.8922 6.36503 15.9946 6.23986L15.0659 5.47997C14.8912 5.69348 14.7336 5.88021 14.6477 6.0478L15.7158 6.59488ZM15.949 7.15793C15.7143 7.08224 15.6034 6.81433 15.7158 6.59488L14.6477 6.0478C14.1981 6.9256 14.642 7.99723 15.5806 8.29999L15.949 7.15793ZM16.3972 7.21178C16.2363 7.19569 16.1293 7.18492 16.0493 7.17444C15.9665 7.1636 15.946 7.15696 15.949 7.15793L15.5806 8.29999C15.7598 8.35779 16.0033 8.37838 16.2778 8.40583L16.3972 7.21178ZM16.8027 7.26916C16.6796 7.23844 16.5432 7.22638 16.3972 7.21178L16.2778 8.40583C16.4645 8.42449 16.4945 8.42907 16.5122 8.43347L16.8027 7.26916ZM17.9986 8.59063C17.9049 7.94834 17.4325 7.4263 16.8027 7.26916L16.5122 8.43347C16.6696 8.47275 16.7878 8.60327 16.8112 8.76384L17.9986 8.59063ZM18.0154 8.99978C18.0154 8.85305 18.0169 8.71621 17.9986 8.59063L16.8112 8.76384C16.8138 8.78184 16.8154 8.81217 16.8154 8.99978H18.0154ZM18.0154 10.0002V8.99978H16.8154V10.0002H18.0154ZM17.9986 10.4091C18.0169 10.2836 18.0154 10.1468 18.0154 10.0002H16.8154C16.8154 10.1877 16.8138 10.218 16.8112 10.236L17.9986 10.4091ZM16.8026 11.7307C17.4325 11.5736 17.905 11.0515 17.9986 10.4091L16.8112 10.236C16.7878 10.3966 16.6696 10.5271 16.5122 10.5664L16.8026 11.7307ZM16.3973 11.788C16.5433 11.7735 16.6795 11.7614 16.8026 11.7307L16.5122 10.5664C16.4945 10.5708 16.4645 10.5753 16.2779 10.594L16.3973 11.788ZM16.4039 11.7874L16.4039 11.7874L16.2714 10.5947L16.2714 10.5947L16.4039 11.7874ZM15.9494 11.8419C15.9464 11.8428 15.9668 11.8362 16.0496 11.8254C16.1295 11.8149 16.2365 11.8041 16.3973 11.7881L16.2779 10.594C16.0036 10.6214 15.7603 10.642 15.5812 10.6997L15.9494 11.8419ZM15.7161 12.405C15.6036 12.1855 15.7146 11.9175 15.9494 11.8419L15.5812 10.6997C14.6423 11.0024 14.1983 12.0743 14.6482 12.9522L15.7161 12.405ZM15.9948 12.7597C15.8924 12.6347 15.8244 12.5514 15.7753 12.4875C15.7245 12.4214 15.7147 12.4022 15.7161 12.405L14.6482 12.9522C14.734 13.1197 14.8915 13.3063 15.066 13.5196L15.9948 12.7597ZM16.0104 12.7797L16.0104 12.7797L15.0504 13.4997L15.0504 13.4997L16.0104 12.7797ZM16.2407 13.0867C16.1754 12.978 16.0876 12.8732 15.9948 12.7597L15.066 13.5196C15.1847 13.6647 15.2027 13.6891 15.2121 13.7047L16.2407 13.0867ZM16.1519 14.8671C16.54 14.3466 16.575 13.6432 16.2407 13.0867L15.2121 13.7047C15.2957 13.8439 15.2869 14.0197 15.1899 14.1498L16.1519 14.8671ZM15.8747 15.168C15.9783 15.0643 16.0761 14.9688 16.1519 14.8671L15.1899 14.1498C15.179 14.1644 15.1587 14.1869 15.0261 14.3195L15.8747 15.168ZM15.1672 15.8754L15.8747 15.168L15.0261 14.3195L14.3187 15.0269L15.1672 15.8754ZM14.8661 16.1529C14.9678 16.077 15.0635 15.9792 15.1672 15.8754L14.3187 15.0269C14.1861 15.1595 14.1635 15.1799 14.1489 15.1907L14.8661 16.1529ZM13.086 16.2416C13.6424 16.5759 14.3457 16.5408 14.8661 16.1529L14.1489 15.1908C14.0188 15.2877 13.843 15.2965 13.7039 15.2129L13.086 16.2416ZM12.7588 15.9955C12.8723 16.0884 12.9772 16.1763 13.086 16.2416L13.7039 15.2129C13.6883 15.2036 13.6638 15.1856 13.5187 15.0668L12.7588 15.9955ZM12.4038 15.7167C12.401 15.7153 12.4201 15.7251 12.4864 15.7759C12.5503 15.8251 12.6336 15.8931 12.7588 15.9955L13.5187 15.0668C13.3052 14.8921 13.1184 14.7345 12.9509 14.6487L12.4038 15.7167ZM11.8407 15.9499C11.9164 15.7153 12.1843 15.6043 12.4038 15.7167L12.9509 14.6487C12.0731 14.199 11.0014 14.6429 10.6987 15.5816L11.8407 15.9499ZM11.7869 16.3983C11.803 16.2373 11.8137 16.1302 11.8242 16.0502C11.835 15.9674 11.8417 15.9469 11.8407 15.9499L10.6987 15.5816C10.6409 15.7608 10.6203 16.0043 10.5928 16.2789L11.7869 16.3983ZM11.7817 16.4372L11.7817 16.4372L10.598 16.2399L10.598 16.2399L11.7817 16.4372ZM11.7294 16.804C11.7602 16.6808 11.7722 16.5444 11.7869 16.3983L10.5928 16.2789C10.5741 16.4657 10.5695 16.4958 10.5651 16.5135L11.7294 16.804ZM10.4081 17.9998C11.0503 17.9061 11.5723 17.4337 11.7294 16.804L10.5651 16.5134C10.5258 16.6709 10.3954 16.789 10.2348 16.8124L10.4081 17.9998ZM9.99874 18.0166C10.1455 18.0166 10.2825 18.0181 10.4081 17.9998L10.2348 16.8124C10.2168 16.815 10.1865 16.8166 9.99874 16.8166V18.0166ZM8.99856 18.0166H9.99874V16.8166H8.99856V18.0166ZM8.58941 17.9998C8.71499 18.0181 8.85183 18.0166 8.99856 18.0166V16.8166C8.81094 16.8166 8.78062 16.815 8.76262 16.8124L8.58941 17.9998ZM7.26794 16.8039C7.42507 17.4337 7.94712 17.9061 8.58942 17.9998L8.76262 16.8124C8.60204 16.789 8.47153 16.6709 8.43225 16.5134L7.26794 16.8039ZM7.21056 16.3985C7.22516 16.5445 7.23722 16.6808 7.26794 16.8039L8.43225 16.5134C8.42785 16.4958 8.42327 16.4657 8.40461 16.2791L7.21056 16.3985ZM7.15671 15.9502C7.15574 15.9472 7.16238 15.9677 7.17322 16.0505C7.1837 16.1305 7.19447 16.2375 7.21056 16.3985L8.40461 16.2791C8.37715 16.0046 8.35657 15.7611 8.29876 15.5818L7.15671 15.9502ZM6.59366 15.717C6.81311 15.6046 7.08102 15.7156 7.15671 15.9502L8.29876 15.5818C7.996 14.6432 6.92438 14.1993 6.04659 14.649L6.59366 15.717ZM6.23862 15.9959C6.3638 15.8935 6.44711 15.8254 6.51107 15.7762C6.57728 15.7254 6.59646 15.7156 6.59366 15.717L6.0466 14.649C5.87899 14.7348 5.69225 14.8924 5.47873 15.0671L6.23862 15.9959ZM5.91134 16.242C6.02013 16.1767 6.12505 16.0888 6.23862 15.9959L5.47873 15.0671C5.33352 15.1859 5.30906 15.2039 5.29347 15.2133L5.91134 16.242ZM4.13129 16.1532C4.6517 16.5412 5.35491 16.5762 5.91134 16.242L5.29346 15.2133C5.15436 15.2969 4.97855 15.2881 4.84845 15.1911L4.13129 16.1532ZM3.83014 15.8758C3.93388 15.9795 4.02954 16.0774 4.13128 16.1532L4.84845 15.1911C4.83387 15.1802 4.81132 15.1599 4.67866 15.0272L3.83014 15.8758ZM3.83012 15.8758L3.83013 15.8758L4.67866 15.0272L4.67865 15.0272L3.83012 15.8758ZM3.12282 15.1685L3.83012 15.8758L4.67865 15.0272L3.97135 14.3199L3.12282 15.1685ZM2.84536 14.8673C2.9212 14.9691 3.01907 15.0647 3.12282 15.1685L3.97135 14.3199C3.83869 14.1873 3.81835 14.1647 3.80748 14.1501L2.84536 14.8673ZM2.75658 13.0872C2.42236 13.6437 2.45744 14.3469 2.84536 14.8673L3.80748 14.1501C3.71049 14.02 3.70173 13.8442 3.78528 13.7051L2.75658 13.0872ZM3.00269 12.76C2.90978 12.8735 2.82192 12.9785 2.75658 13.0872L3.78528 13.7051C3.79465 13.6895 3.81264 13.6651 3.93143 13.5199L3.00269 12.76ZM2.98707 12.7799L2.98706 12.7799L3.94706 13.4999L3.94707 13.4999L2.98707 12.7799ZM3.28156 12.405C3.283 12.4022 3.27321 12.4213 3.22233 12.4875C3.17318 12.5515 3.10511 12.6348 3.0027 12.76L3.93145 13.5199C4.10613 13.3064 4.26375 13.1196 4.34959 12.952L3.28156 12.405ZM3.04834 11.8419C3.283 11.9176 3.39397 12.1855 3.28156 12.405L4.34959 12.952C4.79924 12.0742 4.35535 11.0026 3.4167 10.6998L3.04834 11.8419ZM2.60013 11.7881C2.76105 11.8041 2.86808 11.8149 2.94806 11.8254C3.03085 11.8362 3.05133 11.8429 3.04834 11.8419L3.4167 10.6998C3.2375 10.642 2.99402 10.6215 2.71953 10.594L2.60013 11.7881ZM2.58539 11.7864L2.58541 11.7864L2.73425 10.5957L2.73423 10.5957L2.58539 11.7864ZM2.19472 11.7307C2.31784 11.7614 2.45413 11.7735 2.60011 11.7881L2.71951 10.594C2.53287 10.5753 2.50285 10.5708 2.4852 10.5664L2.19472 11.7307ZM0.998782 10.4092C1.09246 11.0515 1.56492 11.5736 2.19472 11.7307L2.4852 10.5664C2.32775 10.5271 2.20964 10.3966 2.18622 10.236L0.998782 10.4092ZM0.982031 10.0001C0.982031 10.1468 0.980469 10.2836 0.998782 10.4092L2.18622 10.236C2.18359 10.218 2.18203 10.1877 2.18203 10.0001H0.982031ZM0.982031 8.99986V10.0001H2.18203V8.99986H0.982031ZM0.998801 8.59053C0.980467 8.71616 0.982031 8.85307 0.982031 8.99986H2.18203C2.18203 8.81216 2.1836 8.78182 2.18622 8.76381L0.998801 8.59053ZM2.1946 7.26919C1.5649 7.42634 1.09252 7.94832 0.998801 8.59053L2.18622 8.76381C2.20965 8.60326 2.32775 8.47277 2.48517 8.43348L2.1946 7.26919ZM2.60023 7.21177C2.45416 7.22638 2.31778 7.23845 2.1946 7.26919L2.48517 8.43348C2.50283 8.42907 2.53287 8.42449 2.71963 8.40582L2.60023 7.21177ZM3.04868 7.15789C3.05167 7.15692 3.03118 7.16357 2.94835 7.17442C2.86833 7.1849 2.76123 7.19567 2.60023 7.21177L2.71963 8.40582C2.99427 8.37835 3.23789 8.35776 3.41718 8.29991L3.04868 7.15789ZM3.28188 6.59489C3.39425 6.81432 3.2833 7.08219 3.04868 7.15789L3.41718 8.29991C4.35565 7.99709 4.79945 6.92565 4.34998 6.04793L3.28188 6.59489ZM3.00283 6.23963C3.10531 6.36489 3.17343 6.44825 3.22262 6.51225C3.27353 6.57851 3.28332 6.5977 3.28188 6.59489L4.34998 6.04793C4.26411 5.88024 4.10639 5.6934 3.93158 5.47975L3.00283 6.23963ZM2.75653 5.9121C2.82191 6.02097 2.90984 6.12598 3.00284 6.23963L3.93158 5.47975C3.81268 5.33442 3.79467 5.30993 3.78529 5.29433L2.75653 5.9121ZM2.84529 4.13232C2.4575 4.65267 2.42244 5.35573 2.75653 5.91209L3.78529 5.29433C3.70177 5.15524 3.71054 4.97947 3.80749 4.84938L2.84529 4.13232ZM3.12295 3.83093C3.01912 3.93476 2.92118 4.03049 2.84529 4.13231L3.80749 4.84938C3.81837 4.83479 3.83872 4.81222 3.97148 4.67946L3.12295 3.83093ZM3.12295 3.83093L3.12295 3.83093L3.97148 4.67946L3.97148 4.67946L3.12295 3.83093ZM3.83016 3.12372L3.12295 3.83093L3.97148 4.67946L4.67869 3.97225L3.83016 3.12372ZM4.13132 2.84625C4.02957 2.9221 3.93391 3.01997 3.83016 3.12372L4.67869 3.97225C4.81135 3.83959 4.8339 3.81925 4.84849 3.80837L4.13132 2.84625ZM5.91137 2.75747C5.35494 2.42326 4.65174 2.45834 4.13132 2.84625L4.84849 3.80837C4.97859 3.71139 5.15439 3.70263 5.2935 3.78618L5.91137 2.75747ZM6.2387 3.00364C6.12511 2.9107 6.02016 2.82282 5.91137 2.75747L5.2935 3.78618C5.30909 3.79554 5.33357 3.81355 5.47882 3.93239L6.2387 3.00364ZM6.22946 2.99623L6.22945 2.99622L5.48807 3.93981L5.48808 3.93981L6.22946 2.99623ZM6.59365 3.28246C6.59645 3.28389 6.57728 3.27411 6.51109 3.22324C6.44714 3.17409 6.36385 3.10603 6.23871 3.00365L5.47883 3.9324C5.69228 4.10704 5.87895 4.26461 6.04643 4.35042L6.59365 3.28246ZM7.15676 3.04921C7.08109 3.28392 6.81312 3.39491 6.59365 3.28246L6.04643 4.35042C6.92432 4.80025 7.99618 4.35627 8.29886 3.41744L7.15676 3.04921ZM7.21057 2.60126C7.19449 2.76209 7.18372 2.86906 7.17326 2.94899C7.16243 3.03173 7.15579 3.0522 7.15676 3.04921L8.29887 3.41744C8.35661 3.23833 8.37718 2.99499 8.40462 2.72066L7.21057 2.60126ZM7.21322 2.57897L7.21322 2.57898L8.40197 2.74294L8.40197 2.74293L7.21322 2.57897ZM7.21223 2.58652L7.21223 2.58653L8.40296 2.73537L8.40296 2.73536L7.21223 2.58652ZM7.26791 2.19607C7.23722 2.31912 7.22516 2.45534 7.21057 2.60124L8.40462 2.72064C8.42327 2.5341 8.42784 2.50409 8.43224 2.48646L7.26791 2.19607ZM8.58956 0.999984C7.94715 1.09363 7.42501 1.56616 7.26791 2.19607L8.43224 2.48646C8.47152 2.32898 8.60205 2.21085 8.76265 2.18744L8.58956 0.999984ZM8.99844 0.983252C8.85181 0.983252 8.71506 0.981691 8.58956 0.999984L8.76265 2.18744C8.78064 2.18481 8.81095 2.18325 8.99844 2.18325V0.983252ZM9.99885 0.983252H8.99844V2.18325H9.99885V0.983252ZM10.408 1C10.2824 0.981689 10.1456 0.983252 9.99885 0.983252V2.18325C10.1865 2.18325 10.2168 2.18481 10.2348 2.18744L10.408 1ZM11.7295 2.19594C11.5723 1.56614 11.0503 1.09368 10.408 1L10.2348 2.18744C10.3954 2.21086 10.5259 2.32897 10.5651 2.48642L11.7295 2.19594ZM11.7868 2.60134C11.7722 2.45535 11.7602 2.31906 11.7295 2.19594L10.5651 2.48642C10.5695 2.50407 10.5741 2.53409 10.5928 2.72073L11.7868 2.60134ZM12.0654 9.49992C12.0654 10.9174 10.9162 12.0666 9.4987 12.0666V13.2666C11.579 13.2666 13.2654 11.5802 13.2654 9.49992H12.0654ZM9.4987 6.93325C10.9162 6.93325 12.0654 8.08239 12.0654 9.49992H13.2654C13.2654 7.41965 11.579 5.73325 9.4987 5.73325V6.93325ZM6.93203 9.49992C6.93203 8.08239 8.08117 6.93325 9.4987 6.93325V5.73325C7.41842 5.73325 5.73203 7.41965 5.73203 9.49992H6.93203ZM9.4987 12.0666C8.08117 12.0666 6.93203 10.9174 6.93203 9.49992H5.73203C5.73203 11.5802 7.41842 13.2666 9.4987 13.2666V12.0666Z" fill="#044766"/>
</svg>
