<svg width="32" height="32" viewBox="3 2 26 28" fill="none" xmlns="http://www.w3.org/2000/svg">
<g filter="url(#filter0_d_72_160)">
<path d="M6.67963 2.65371L7.62623 1.70711C8.01675 1.31658 8.64992 1.31658 9.04044 1.70711L12.9596 5.62623C13.3501 6.01675 13.3501 6.64992 12.9596 7.04044L11.3623 8.63767C11.1459 8.85405 11.0923 9.18461 11.2292 9.45831C12.8114 12.6227 15.3773 15.1886 18.5417 16.7708C18.8154 16.9077 19.1459 16.8541 19.3623 16.6377L20.9596 15.0404C21.3501 14.6499 21.9832 14.6499 22.3738 15.0404L26.2929 18.9596C26.6834 19.3501 26.6834 19.9832 26.2929 20.3738L25.3463 21.3204C23.2349 23.4317 19.8924 23.6693 17.5037 21.8777L13.6286 18.9714C11.885 17.6638 10.3362 16.115 9.02857 14.3714L6.12226 10.4964C4.33072 8.10763 4.56827 4.76506 6.67963 2.65371Z" fill="white"/>
<path d="M6.67963 2.65371L7.62623 1.70711C8.01675 1.31658 8.64992 1.31658 9.04044 1.70711L12.9596 5.62623C13.3501 6.01675 13.3501 6.64992 12.9596 7.04044L11.3623 8.63767C11.1459 8.85405 11.0923 9.18461 11.2292 9.45831C12.8114 12.6227 15.3773 15.1886 18.5417 16.7708C18.8154 16.9077 19.1459 16.8541 19.3623 16.6377L20.9596 15.0404C21.3501 14.6499 21.9832 14.6499 22.3738 15.0404L26.2929 18.9596C26.6834 19.3501 26.6834 19.9832 26.2929 20.3738L25.3463 21.3204C23.2349 23.4317 19.8924 23.6693 17.5037 21.8777L13.6286 18.9714C11.885 17.6638 10.3362 16.115 9.02857 14.3714L6.12226 10.4964C4.33072 8.10763 4.56827 4.76506 6.67963 2.65371Z" stroke="#044766" stroke-width="1.2"/>
</g>
<defs>
<filter id="filter0_d_72_160" x="0.320312" y="0.814209" width="30.8672" height="30.8636" filterUnits="userSpaceOnUse" color-interpolation-filters="sRGB">
<feFlood flood-opacity="0" result="BackgroundImageFix"/>
<feColorMatrix in="SourceAlpha" type="matrix" values="0 0 0 0 0 0 0 0 0 0 0 0 0 0 0 0 0 0 127 0" result="hardAlpha"/>
<feOffset dy="4"/>
<feGaussianBlur stdDeviation="2"/>
<feComposite in2="hardAlpha" operator="out"/>
<feColorMatrix type="matrix" values="0 0 0 0 0 0 0 0 0 0 0 0 0 0 0 0 0 0 0.25 0"/>
<feBlend mode="normal" in2="BackgroundImageFix" result="effect1_dropShadow_72_160"/>
<feBlend mode="normal" in="SourceGraphic" in2="effect1_dropShadow_72_160" result="shape"/>
</filter>
</defs>
</svg>
