<svg width="35" height="35" viewBox="5 5 25 25" fill="none" xmlns="http://www.w3.org/2000/svg">
<path d="M26.9792 13.8541V11.2208C26.9792 10.1006 26.9792 9.54059 26.7612 9.11277C26.5694 8.73645 26.2635 8.43049 25.8871 8.23874C25.4593 8.02075 24.8993 8.02075 23.7792 8.02075H9.7625C8.64239 8.02075 8.08234 8.02075 7.65452 8.23874C7.27819 8.43049 6.97223 8.73645 6.78049 9.11277C6.5625 9.54059 6.5625 10.1006 6.5625 11.2207V19.4041C6.5625 20.5242 6.5625 21.0842 6.78049 21.5121C6.97223 21.8884 7.27819 22.1944 7.65452 22.3861C8.08234 22.6041 8.64239 22.6041 9.7625 22.6041H19.6875" stroke="#044766" stroke-linecap="round"/>
<path d="M10.9375 18.2292H16.7708" stroke="#5DB03E" stroke-linecap="round"/>
<path d="M10.9375 12.3958H21.1458" stroke="#5DB03E" stroke-linecap="round"/>
<circle cx="25.5208" cy="19.6876" r="3.14583" fill="#5DB03E" stroke="#044766"/>
<path d="M28.4368 26.9791C28.4368 26.9791 27.7077 25.5208 25.5202 25.5208C23.3327 25.5208 22.6035 26.9791 22.6035 26.9791" stroke="#044766" stroke-linecap="round"/>
</svg>
