<svg width="24" height="24" viewBox="0 0 24 24" fill="none" xmlns="http://www.w3.org/2000/svg">
<rect width="24" height="24" fill="#E8F0FF"/>
<circle cx="12" cy="12" r="8" fill="white"/>
<path d="M9 9.45455L12.6217 12.1709C13.0402 12.4847 13.6299 12.423 13.9743 12.0294L21 4" stroke="#222222" stroke-width="1.2" stroke-linecap="round"/>
<path d="M20 12C20 13.6715 19.4764 15.3011 18.5028 16.6598C17.5291 18.0185 16.1544 19.0381 14.5715 19.5754C12.9887 20.1127 11.2773 20.1407 9.67772 19.6555C8.07815 19.1703 6.67075 18.1962 5.65317 16.8701C4.6356 15.544 4.05897 13.9324 4.00428 12.2618C3.94959 10.5911 4.41958 8.94528 5.34824 7.55544C6.2769 6.1656 7.61759 5.10156 9.182 4.51275C10.7464 3.92395 12.456 3.83997 14.0706 4.27259" stroke="#222222" stroke-width="1.2" stroke-linecap="round"/>
</svg>
