<svg width="32" height="32" viewBox="3 3 26 26" fill="none" xmlns="http://www.w3.org/2000/svg">
<circle cx="10.668" cy="10.6667" r="3.5" fill="white" stroke="#044766" stroke-linecap="round"/>
<path d="M10.6685 16.6667C16.3845 16.6667 17.6451 21.5271 17.9231 23.671C17.9942 24.2187 17.5541 24.6667 17.0018 24.6667H4.33513C3.78285 24.6667 3.34277 24.2187 3.41379 23.671C3.69181 21.5271 4.95242 16.6667 10.6685 16.6667Z" fill="white"/>
<path d="M17.0018 24.1667H4.33513V25.1667H17.0018V24.1667ZM3.90964 23.7353C4.04405 22.6988 4.41332 21.0425 5.40808 19.6564C6.38374 18.297 7.98019 17.1667 10.6685 17.1667V16.1667C7.6407 16.1667 5.74882 17.4666 4.59566 19.0733C3.4616 20.6535 3.06156 22.4992 2.91794 23.6067L3.90964 23.7353ZM10.6685 17.1667C13.3567 17.1667 14.9532 18.297 15.9288 19.6564C16.9236 21.0425 17.2929 22.6988 17.4273 23.7353L18.419 23.6067C18.2754 22.4992 17.8753 20.6535 16.7413 19.0733C15.5881 17.4666 13.6962 16.1667 10.6685 16.1667V17.1667ZM4.33513 24.1667C4.04846 24.1667 3.88191 23.9491 3.90964 23.7353L2.91794 23.6067C2.80363 24.4882 3.51723 25.1667 4.33513 25.1667V24.1667ZM17.0018 25.1667C17.8197 25.1667 18.5333 24.4882 18.419 23.6067L17.4273 23.7353C17.455 23.9491 17.2885 24.1667 17.0018 24.1667V25.1667Z" fill="#044766"/>
<path fill-rule="evenodd" clip-rule="evenodd" d="M17.002 24.6667H22.229C22.8206 24.6667 23.2743 24.1574 23.147 23.5797C22.7305 21.6903 21.4727 18 18.0007 18C17.1061 18 16.3585 18.245 15.7344 18.641C17.2613 20.2372 17.7594 22.418 17.9219 23.671C17.9929 24.2182 17.5536 24.6659 17.002 24.6667Z" fill="#5DB03E"/>
<path d="M17.002 24.6667L17.0013 24.1667L17.002 25.1667V24.6667ZM23.147 23.5797L22.6587 23.6873L23.147 23.5797ZM15.7344 18.641L15.4665 18.2189L14.9513 18.5458L15.3731 18.9867L15.7344 18.641ZM17.9219 23.671L17.4261 23.7353L17.9219 23.671ZM22.229 24.1667H17.002V25.1667H22.229V24.1667ZM22.6587 23.6873C22.7098 23.9192 22.5366 24.1667 22.229 24.1667V25.1667C23.1046 25.1667 23.8388 24.3956 23.6352 23.472L22.6587 23.6873ZM18.0007 18.5C19.5254 18.5 20.5708 19.298 21.3083 20.3655C22.0551 21.4466 22.4562 22.7685 22.6587 23.6873L23.6352 23.472C23.4213 22.5015 22.9852 21.0336 22.131 19.7971C21.2675 18.5471 19.9479 17.5 18.0007 17.5V18.5ZM16.0023 19.0632C16.5481 18.7168 17.2031 18.5 18.0007 18.5V17.5C17.009 17.5 16.1688 17.7732 15.4665 18.2189L16.0023 19.0632ZM15.3731 18.9867C16.7889 20.4667 17.2681 22.5173 17.4261 23.7353L18.4178 23.6067C18.2507 22.3188 17.7338 20.0078 16.0957 18.2954L15.3731 18.9867ZM17.4261 23.7353C17.4538 23.949 17.2875 24.1663 17.0013 24.1667L17.0027 25.1667C17.8197 25.1655 18.532 24.4874 18.4178 23.6067L17.4261 23.7353Z" fill="#044766"/>
<path d="M24.329 9.68517L20.3479 6.06594C19.7392 5.51258 20.1307 4.49999 20.9533 4.49999L28.3774 4.49999C29.2001 4.49999 29.5915 5.51258 28.9829 6.06594L25.0017 9.68517C24.811 9.85854 24.5197 9.85854 24.329 9.68517Z" fill="#044766" stroke="#044766" stroke-linecap="round" stroke-linejoin="round"/>
<ellipse cx="18" cy="12.5" rx="3" ry="2.5" fill="#5DB03E"/>
<path d="M15.5476 11.25C15.9233 10.5992 16.5421 10.1244 17.268 9.92989C17.9938 9.7354 18.7672 9.83721 19.418 10.2129C20.0687 10.5887 20.5436 11.2075 20.7381 11.9334C20.9326 12.6592 20.8308 13.4326 20.455 14.0833C20.0793 14.7341 19.4605 15.209 18.7346 15.4035C18.0088 15.598 17.2354 15.4961 16.5846 15.1204C15.9339 14.7447 15.459 14.1258 15.2645 13.4C15.07 12.6742 15.1718 11.9008 15.5476 11.25L15.5476 11.25Z" stroke="#044766"/>
</svg>
