<svg width="717" height="1024" viewBox="0 0 717 1024" fill="none" xmlns="http://www.w3.org/2000/svg">
<g clip-path="url(#clip0_89_1716)">
<path d="M0 1024H400.658C400.119 964.754 334.988 907.61 259.586 907.884C256.701 855.247 206.074 805.087 139.046 822.68C116.437 771.078 60.6891 731.375 0 732.634L0 1024Z" fill="white"/>
<path d="M0 1024H316.342C315.534 991.017 266.763 958.369 213.33 958.369C190.582 904.29 145.275 889.59 86.8913 900.311C66.5584 854.81 23.0379 849.115 0 849.542L0 1024Z" fill="#E8F0FF"/>
<path d="M717.002 1024H316.344C316.883 964.754 382.014 907.61 457.416 907.884C460.301 855.247 510.928 805.087 577.956 822.68C600.564 771.078 656.313 731.375 717.002 732.634V1024Z" fill="white"/>
<path d="M716.998 1024H400.656C401.465 991.017 450.236 958.369 503.668 958.369C526.416 904.29 571.724 889.59 630.107 900.311C650.44 854.81 693.96 849.115 716.998 849.542V1024Z" fill="#E8F0FF"/>
<path d="M705.51 487.153C705.51 494.026 700.04 499.589 693.282 499.589C686.525 499.589 681.055 494.026 681.055 487.153C681.055 480.281 686.525 474.718 693.282 474.718C700.04 474.718 705.51 480.281 705.51 487.153Z" fill="white"/>
<path d="M486.721 91.427H363.586V176.773H486.721V91.427Z" fill="#9EC0FF"/>
<path d="M473.217 195.462L464.872 189.554L456.527 195.462V164.723H473.217V195.462Z" fill="#5181DB"/>
<path d="M477.1 163.373C477.1 170.245 471.63 175.809 464.872 175.809C458.115 175.809 452.645 170.245 452.645 163.373C452.645 156.5 458.115 150.937 464.872 150.937C471.63 150.937 477.1 156.5 477.1 163.373Z" fill="#5181DB"/>
<path d="M473.515 163.545C473.515 168.398 469.642 172.337 464.871 172.337C460.099 172.337 456.227 168.398 456.227 163.545C456.227 158.693 460.099 154.754 464.871 154.754C469.642 154.754 473.515 158.693 473.515 163.545Z" stroke="#9EC0FF" stroke-width="1.81" stroke-miterlimit="10"/>
<path d="M373.488 120.837H473.516" stroke="#89A4D9" stroke-width="2.37" stroke-miterlimit="10"/>
<path d="M400.547 112.939H446.463" stroke="#89A4D9" stroke-width="2.37" stroke-miterlimit="10"/>
<path d="M373.488 128.745H473.516" stroke="#89A4D9" stroke-width="2.37" stroke-miterlimit="10"/>
<path d="M373.488 136.643H473.516" stroke="#89A4D9" stroke-width="2.37" stroke-miterlimit="10"/>
<path d="M373.488 144.551H473.516" stroke="#89A4D9" stroke-width="2.37" stroke-miterlimit="10"/>
<path d="M661.552 553.81H641.668V651.43H661.552V553.81Z" fill="#2E6ADB"/>
<path d="M637.317 571.84H617.434V651.44H637.317V571.84Z" fill="#9EC0FF"/>
<path d="M613.079 561.119H593.195V651.44H613.079V561.119Z" fill="#89A4D9"/>
<path d="M588.833 601.645H568.949V651.44H588.833V601.645Z" fill="#5181DB"/>
<path d="M564.598 624.934H544.715V651.44H564.598V624.934Z" fill="white"/>
<path d="M672.431 656.607H540.293V550.582" stroke="white" stroke-width="2.73" stroke-miterlimit="10"/>
<path d="M637.754 184.945C600.732 184.945 570.727 215.461 570.727 253.114C570.727 290.767 600.732 321.284 637.754 321.284C674.776 321.284 704.782 290.767 704.782 253.114C704.782 215.461 674.776 184.945 637.754 184.945ZM637.754 309.944C606.89 309.944 581.876 284.504 581.876 253.114C581.876 221.725 606.89 196.285 637.754 196.285C668.618 196.285 693.632 221.725 693.632 253.114C693.632 284.504 668.618 309.944 637.754 309.944Z" fill="#9EC0FF"/>
<path d="M640.069 203.391C640.069 204.924 638.842 206.173 637.334 206.173C635.827 206.173 634.609 204.924 634.609 203.391C634.609 201.858 635.837 200.609 637.334 200.609C638.832 200.609 640.069 201.858 640.069 203.391Z" fill="#9EC0FF"/>
<path d="M640.069 302.838C640.069 304.371 638.842 305.619 637.334 305.619C635.827 305.619 634.609 304.381 634.609 302.838C634.609 301.295 635.837 300.056 637.334 300.056C638.832 300.056 640.069 301.305 640.069 302.838Z" fill="#9EC0FF"/>
<path d="M615.354 208.812C616.113 210.142 615.664 211.837 614.356 212.609C613.048 213.38 611.382 212.924 610.623 211.594C609.864 210.264 610.313 208.568 611.621 207.797C612.929 207.025 614.596 207.482 615.354 208.812Z" fill="#9EC0FF"/>
<path d="M664.245 294.93C665.004 296.259 664.554 297.955 663.247 298.726C661.939 299.498 660.272 299.041 659.514 297.711C658.755 296.381 659.204 294.686 660.512 293.914C661.819 293.143 663.486 293.6 664.245 294.93Z" fill="#9EC0FF"/>
<path d="M596.622 226.07C597.929 226.842 598.379 228.537 597.62 229.867C596.871 231.197 595.194 231.654 593.887 230.882C592.579 230.111 592.13 228.415 592.889 227.085C593.647 225.755 595.314 225.299 596.622 226.07Z" fill="#9EC0FF"/>
<path d="M681.294 275.793C682.601 276.565 683.05 278.26 682.292 279.59C681.533 280.92 679.866 281.377 678.559 280.605C677.251 279.834 676.802 278.139 677.56 276.809C678.319 275.479 679.986 275.022 681.294 275.793Z" fill="#9EC0FF"/>
<path d="M588.876 250.546C590.383 250.546 591.611 251.784 591.611 253.327C591.611 254.871 590.393 256.099 588.876 256.099C587.358 256.099 586.141 254.86 586.141 253.327C586.141 251.795 587.358 250.546 588.876 250.546Z" fill="#9EC0FF"/>
<path d="M686.645 250.546C688.152 250.546 689.38 251.784 689.38 253.327C689.38 254.871 688.152 256.099 686.645 256.099C685.138 256.099 683.91 254.86 683.91 253.327C683.91 251.795 685.128 250.546 686.645 250.546Z" fill="#9EC0FF"/>
<path d="M594.195 275.682C595.503 274.91 597.17 275.367 597.928 276.697C598.677 278.027 598.238 279.722 596.93 280.494C595.623 281.265 593.956 280.808 593.197 279.478C592.439 278.149 592.888 276.453 594.195 275.682Z" fill="#9EC0FF"/>
<path d="M678.871 225.958C680.179 225.187 681.846 225.644 682.604 226.973C683.363 228.303 682.914 229.999 681.606 230.77C680.298 231.542 678.632 231.085 677.873 229.755C677.114 228.425 677.563 226.73 678.871 225.958Z" fill="#9EC0FF"/>
<path d="M611.162 294.747C611.911 293.417 613.588 292.96 614.895 293.732C616.203 294.503 616.652 296.199 615.893 297.528C615.135 298.858 613.468 299.315 612.16 298.544C610.853 297.772 610.403 296.077 611.162 294.747Z" fill="#9EC0FF"/>
<path d="M660.053 208.629C660.801 207.299 662.478 206.843 663.786 207.614C665.093 208.386 665.543 210.081 664.784 211.411C664.025 212.741 662.358 213.198 661.051 212.426C659.743 211.654 659.294 209.959 660.053 208.629Z" fill="#9EC0FF"/>
<path d="M637.753 210.01V253.114L612.988 269.296" stroke="white" stroke-width="2.37" stroke-miterlimit="10"/>
<path d="M642.355 253.114C642.355 255.693 640.299 257.784 637.763 257.784C635.228 257.784 633.172 255.693 633.172 253.114C633.172 250.536 635.228 248.445 637.763 248.445C640.299 248.445 642.355 250.536 642.355 253.114Z" fill="#9EC0FF"/>
<path d="M596.431 245.592H484.984V382.702H596.431V245.592Z" fill="white"/>
<path d="M500.574 263.215H534.213" stroke="#B8D0FF" stroke-width="2.37" stroke-miterlimit="10"/>
<path d="M500.574 272.971H580.838" stroke="#B8D0FF" stroke-width="2.37" stroke-miterlimit="10"/>
<path d="M500.574 282.727H580.838" stroke="#B8D0FF" stroke-width="2.37" stroke-miterlimit="10"/>
<path d="M500.574 292.493H580.838" stroke="#B8D0FF" stroke-width="2.37" stroke-miterlimit="10"/>
<path d="M500.574 302.249H580.838" stroke="#B8D0FF" stroke-width="2.37" stroke-miterlimit="10"/>
<path d="M500.574 312.005H580.838" stroke="#B8D0FF" stroke-width="2.37" stroke-miterlimit="10"/>
<path d="M500.574 321.761H580.838" stroke="#B8D0FF" stroke-width="2.37" stroke-miterlimit="10"/>
<path d="M500.574 331.517H580.838" stroke="#B8D0FF" stroke-width="2.37" stroke-miterlimit="10"/>
<path d="M500.574 341.282H580.838" stroke="#B8D0FF" stroke-width="2.37" stroke-miterlimit="10"/>
<path d="M500.574 351.039H580.838" stroke="#B8D0FF" stroke-width="2.37" stroke-miterlimit="10"/>
<path d="M500.574 360.794H534.213" stroke="#B8D0FF" stroke-width="2.37" stroke-miterlimit="10"/>
<path d="M571.036 238.993V272.697C571.036 276.91 567.682 280.321 563.539 280.321C559.397 280.321 556.043 276.91 556.043 272.697V237.552C556.043 231.115 561.164 225.907 567.492 225.907C573.821 225.907 578.941 231.125 578.941 237.552V245.592" stroke="#2E6ADB" stroke-width="4.74" stroke-miterlimit="10"/>
<path d="M259.296 83.7118L291.677 86.9908C293.763 65.5705 284.131 43.7746 264.996 31.5417L247.688 59.5404C256.032 64.87 260.205 74.3721 259.296 83.7016" fill="#9EC0FF"/>
<path d="M255.585 94.7771C248.198 106.726 232.687 110.319 220.938 102.807C218.153 101.02 215.837 98.7668 214.011 96.2085L187.719 115.69C191.911 121.547 197.231 126.715 203.63 130.806C230.58 148.033 266.165 139.78 283.114 112.37C288.025 104.421 290.82 95.7314 291.669 86.9907L259.288 83.7117C258.919 87.5287 257.721 91.3154 255.585 94.7771Z" fill="#2E6ADB"/>
<path d="M187.717 115.7L214.009 96.2186C211.773 93.102 210.295 89.5286 209.627 85.7927L177.625 91.7721C179.172 100.34 182.596 108.533 187.727 115.69" fill="#5181DB"/>
<path d="M213.041 67.5805C218.551 58.6672 228.572 54.4136 238.185 55.9364L243.196 23.2477C221.136 19.7555 198.138 29.5418 185.501 49.9773C177.496 62.931 175.09 77.8338 177.615 91.7823L209.617 85.7928C208.519 79.7119 209.537 73.2249 213.031 67.5805" fill="#89A4D9"/>
<path d="M238.184 55.9364C241.458 56.4541 244.692 57.6419 247.676 59.5504L264.985 31.5518C258.127 27.1662 250.721 24.4456 243.194 23.2578L238.184 55.9465V55.9364Z" fill="white"/>
<path d="M169.752 504.229H45.3789V671.408H169.752V504.229Z" fill="white"/>
<path d="M65.9695 653.551C60.7591 641.643 53.7618 630.385 45.3672 620.101V671.419H152.252C130.711 653.419 100.516 644.486 65.9695 653.562" fill="#B8D0FF"/>
<path d="M55.8672 599.097H159.248" stroke="#B8D0FF" stroke-width="2.37" stroke-miterlimit="10"/>
<path d="M55.8672 608.163H159.248" stroke="#B8D0FF" stroke-width="2.37" stroke-miterlimit="10"/>
<path d="M55.8672 617.239H159.248" stroke="#B8D0FF" stroke-width="2.37" stroke-miterlimit="10"/>
<path d="M55.8672 626.304H159.248" stroke="#B8D0FF" stroke-width="2.37" stroke-miterlimit="10"/>
<path d="M55.8672 635.38H159.248" stroke="#B8D0FF" stroke-width="2.37" stroke-miterlimit="10"/>
<path d="M55.8672 644.445H159.248" stroke="#B8D0FF" stroke-width="2.37" stroke-miterlimit="10"/>
<path d="M77.7572 523.213H55.8672V535.821H77.7572V523.213Z" fill="#B8D0FF"/>
<path d="M104.917 523.213H83.0273V535.821H104.917V523.213Z" fill="#B8D0FF"/>
<path d="M132.078 523.213H110.188V535.821H132.078V523.213Z" fill="#B8D0FF"/>
<path d="M159.249 523.213H137.359V535.821H159.249V523.213Z" fill="#B8D0FF"/>
<path d="M77.7572 540.684H55.8672V553.292H77.7572V540.684Z" fill="#B8D0FF"/>
<path d="M104.917 540.684H83.0273V553.292H104.917V540.684Z" fill="#B8D0FF"/>
<path d="M132.078 540.684H110.188V553.292H132.078V540.684Z" fill="#B8D0FF"/>
<path d="M159.249 540.684H137.359V553.292H159.249V540.684Z" fill="#B8D0FF"/>
<path d="M77.7572 558.165H55.8672V570.774H77.7572V558.165Z" fill="#B8D0FF"/>
<path d="M104.917 558.165H83.0273V570.774H104.917V558.165Z" fill="#B8D0FF"/>
<path d="M132.078 558.165H110.188V570.774H132.078V558.165Z" fill="#B8D0FF"/>
<path d="M159.249 558.165H137.359V570.774H159.249V558.165Z" fill="#B8D0FF"/>
<path d="M77.7572 575.636H55.8672V588.245H77.7572V575.636Z" fill="#B8D0FF"/>
<path d="M104.917 575.636H83.0273V588.245H104.917V575.636Z" fill="#B8D0FF"/>
<path d="M132.078 575.636H110.188V588.245H132.078V575.636Z" fill="#B8D0FF"/>
<path d="M159.249 575.636H137.359V588.245H159.249V575.636Z" fill="#B8D0FF"/>
<path d="M254.643 440.1H76.7578V446.963H254.643V440.1Z" fill="#89A4D9"/>
<path d="M188.565 446.963H60.1399L41.9531 360.002H170.378L188.565 446.963Z" fill="white"/>
<path d="M166.156 361.982L183.924 446.952" stroke="#89A4D9" stroke-width="2.08" stroke-miterlimit="10"/>
<path d="M126.51 402.467C127.948 409.32 122.877 414.883 115.191 414.883C107.505 414.883 100.118 409.33 98.6811 402.467C97.2437 395.615 102.314 390.052 110 390.052C117.686 390.052 125.073 395.605 126.51 402.467Z" stroke="#89A4D9" stroke-width="1.8" stroke-miterlimit="10"/>
<path d="M118.364 151.576H42.7721C34.5871 151.576 27.9492 158.327 27.9492 166.652V200.965C27.9492 209.289 34.5871 216.04 42.7721 216.04H63.075C67.2275 216.04 70.8608 218.882 71.9189 222.964L80.5631 256.119L89.2073 222.964C90.2754 218.882 93.8987 216.04 98.0511 216.04H118.354C126.539 216.04 133.177 209.289 133.177 200.965V166.652C133.177 158.327 126.539 151.576 118.354 151.576" fill="#9EC0FF"/>
<path d="M109.289 167.667H55.6367V203.848H109.289V167.667Z" stroke="white" stroke-width="2.08" stroke-miterlimit="10"/>
<path d="M59.4609 171.484L82.4689 189.148L105.477 171.484" stroke="white" stroke-width="2.08" stroke-miterlimit="10"/>
<path d="M87.0117 185.656L105.478 200.031" stroke="white" stroke-width="2.08" stroke-miterlimit="10"/>
<path d="M59.4609 200.031L78.057 185.757" stroke="white" stroke-width="2.08" stroke-miterlimit="10"/>
<path d="M67.2964 167.667C67.2964 173.433 62.6948 178.113 57.0251 178.113C51.3555 178.113 46.7539 173.433 46.7539 167.667C46.7539 161.9 51.3555 157.22 57.0251 157.22C62.6948 157.22 67.2964 161.9 67.2964 167.667Z" fill="#2E6ADB"/>
<path d="M50.8359 166.641L55.737 170.915L63.2133 164.418" stroke="white" stroke-width="1.78" stroke-linecap="round" stroke-linejoin="round"/>
<path d="M41.3635 313.578C30.5932 316.604 28.1876 319.05 25.213 330.004C22.2384 319.05 19.8328 316.604 9.0625 313.578C19.8328 310.553 22.2384 308.107 25.213 297.153C28.1876 308.107 30.5932 310.553 41.3635 313.578Z" fill="#2E6ADB"/>
<path d="M565.855 28.7905L573.631 72.5142H644.921L637.145 28.7905H565.855Z" fill="#5181DB"/>
<path d="M644.061 14.9333H573.859V72.5143H644.061V14.9333Z" fill="white"/>
<path d="M617.859 22.5574L610.193 32.3538H580.577L573.859 72.5143H645.149L653.504 22.5574H617.859Z" fill="#9EC0FF"/>
<path d="M697.184 16.4256C686.414 19.4508 684.008 21.8974 681.033 32.8512C678.059 21.8974 675.653 19.4508 664.883 16.4256C675.653 13.4004 678.059 10.9538 681.033 0C684.008 10.9538 686.414 13.4004 697.184 16.4256Z" fill="#2E6ADB"/>
<path d="M715.863 564.47C705.093 567.495 702.688 569.941 699.713 580.895C696.738 569.941 694.333 567.495 683.562 564.47C694.333 561.444 696.738 558.998 699.713 548.044C702.688 558.998 705.093 561.444 715.863 564.47Z" fill="#2E6ADB"/>
<path d="M122.567 846.689C111.796 849.714 109.391 852.161 106.416 863.115C103.442 852.161 101.036 849.714 90.2656 846.689C101.036 843.664 103.442 841.217 106.416 830.263C109.391 841.217 111.796 843.664 122.567 846.689Z" fill="#2E6ADB"/>
<path d="M632.414 856.485C621.644 859.511 619.238 861.957 616.264 872.911C613.289 861.957 610.884 859.511 600.113 856.485C610.884 853.46 613.289 851.014 616.264 840.06C619.238 851.014 621.644 853.46 632.414 856.485Z" fill="#2E6ADB"/>
<path d="M232.594 374.337C221.824 377.362 219.418 379.809 216.443 390.762C213.469 379.809 211.063 377.362 200.293 374.337C211.063 371.311 213.469 368.865 216.443 357.911C219.418 368.865 221.824 371.311 232.594 374.337Z" fill="#2E6ADB"/>
<path d="M377.68 783.484C366.91 786.509 364.504 788.956 361.529 799.91C358.555 788.956 356.149 786.509 345.379 783.484C356.149 780.459 358.555 778.012 361.529 767.059C364.504 778.012 366.91 780.459 377.68 783.484Z" fill="#2E6ADB"/>
<path d="M457.943 306.01C458.75 250.661 415.287 205.126 360.865 204.305C306.444 203.484 261.672 247.687 260.864 303.036C260.057 358.385 303.52 403.919 357.941 404.74C412.363 405.561 457.135 361.358 457.943 306.01Z" stroke="white" stroke-width="2.37" stroke-miterlimit="10"/>
<path d="M445.746 304.543C445.746 353.028 407.096 392.326 359.433 392.326C311.77 392.326 273.121 353.018 273.121 304.543C273.121 256.068 311.77 216.761 359.433 216.761C407.096 216.761 445.746 256.058 445.746 304.543Z" stroke="white" stroke-width="2.37" stroke-miterlimit="10"/>
<path d="M359.392 527.842L193.715 561.688L359.392 667.642L525.069 561.688L359.392 527.842Z" fill="#141D30"/>
<path d="M440.876 531.405L434.926 518.999L466.818 375.281L384.119 349.993H334.66L251.961 375.281L283.852 518.999L277.903 531.405L244.934 549.78L321.693 605.554C333.093 612.487 347.846 606.427 351.329 593.392L359.384 563.21L367.44 593.392C370.923 606.427 385.676 612.487 397.076 605.554L473.835 549.78L440.866 531.405H440.876Z" fill="#26395E"/>
<path d="M334.719 353.343H384.069L359.394 474.789L334.719 353.343Z" fill="#DEDEDE"/>
<path d="M335.289 356.145L368.159 472.312L353.296 482.514L335.289 356.145Z" fill="#ABABAB"/>
<path d="M422.009 393.98C422.009 393.98 406.537 365.89 384.068 353.343L359.393 474.789L334.718 353.343C312.249 365.89 296.777 393.98 296.777 393.98L319.077 407.178L296.777 406.761C296.777 406.761 316.651 452.485 364.683 495.661C376.861 481.641 407.016 444.719 422.009 406.761L399.709 407.178L422.009 393.98Z" fill="#141D30"/>
<path d="M336.613 343.892H382.07L359.342 365.87L336.613 343.892Z" fill="white"/>
<path d="M384.076 303.965C384.076 303.965 386.911 293.244 388.938 283.895C390.964 274.555 386.502 270.149 382.988 268.504C379.954 251.815 368.705 244.851 357.625 244.851C356.637 244.851 356.247 246.16 357.066 246.709C361.268 249.5 362.995 253.52 362.995 253.52C362.995 253.52 348.671 250.089 334.617 258.464C320.562 266.85 323.128 273.032 329.756 276.88C329.756 276.88 330.295 290.209 333.948 303.538L384.086 303.954L384.076 303.965Z" fill="#142F61"/>
<path d="M359.395 474.789C363.257 494.574 371.572 516.015 371.572 516.015L360.423 559.586" stroke="#141D30" stroke-width="1.81" stroke-miterlimit="10"/>
<path d="M364.073 515.67C364.073 518.208 362.047 520.279 359.541 520.279C357.036 520.279 355.02 518.218 355.02 515.67C355.02 513.122 357.046 511.061 359.541 511.061C362.037 511.061 364.073 513.122 364.073 515.67Z" fill="#DEDEDE"/>
<path d="M354.811 557.089C354.811 559.627 352.785 561.698 350.28 561.698C347.774 561.698 345.758 559.637 345.758 557.089C345.758 554.541 347.784 552.48 350.28 552.48C352.775 552.48 354.811 554.541 354.811 557.089Z" fill="#DEDEDE"/>
<path d="M340.16 489.356L361.91 508.868" stroke="#141D30" stroke-width="1.81" stroke-miterlimit="10"/>
<path d="M357.179 522.756L341.777 532.918" stroke="#141D30" stroke-width="1.81" stroke-miterlimit="10"/>
<path d="M290.187 533.036L288.664 538.885L330.465 550.141L331.987 544.292L290.187 533.036Z" fill="#496EB5"/>
<path d="M428.605 533.016L386.805 544.272L388.327 550.121L430.128 538.865L428.605 533.016Z" fill="#496EB5"/>
<path d="M421.35 680.971L452.653 699.112L446.694 737.354L407.066 713.376L421.35 680.971Z" fill="white"/>
<path d="M442.99 691.641L445.047 721.842L437.81 716.097L423.406 728.786L438.818 739.131L450.806 771.282L456.087 791.179C456.785 793.829 460.019 794.692 461.936 792.773C466.348 788.377 472.507 779.87 472.986 766.368C473.764 744.44 469.322 726.664 469.322 726.664L474.962 727.619L477.048 701.793L471.059 701.376C471.059 701.376 460.129 689.661 442.981 691.641" fill="#141D30"/>
<path d="M157.342 593.27C163.292 561.993 205.445 549.232 245.451 571.058C285.448 592.884 430.853 675.114 430.853 675.114L406.258 740.532C390.397 735.101 388.76 727.68 376.053 722.939C365.582 719.03 362.468 723.974 345.848 718.208C329.228 712.432 323.808 706.128 314.226 702.747C299.024 697.387 284.869 698.92 270.795 694.057C247.059 685.875 226.636 678.799 216.255 675.124C174.122 660.191 151.393 624.548 157.342 593.27Z" fill="#26395E"/>
<path d="M394.359 726.106L408.993 662.769C413.694 665.419 417.797 667.743 421.13 669.632L394.359 726.106Z" fill="#141D30"/>
<path d="M421.132 682.819L269.109 584.144" stroke="#141D30" stroke-width="1.81" stroke-miterlimit="10"/>
<path d="M470.171 704.087L468.414 723.223" stroke="#496EB5" stroke-width="1.63" stroke-miterlimit="10"/>
<path d="M406.259 740.542C399.451 738.207 395.259 735.517 391.695 732.817L417.608 667.642C425.903 672.332 430.844 675.124 430.844 675.124L406.249 740.542H406.259Z" fill="#496EB5"/>
<path d="M475.252 724.015L477.048 701.793L471.059 701.376C471.059 701.376 460.129 689.661 442.981 691.641L443.11 693.59L427.339 684.453L430.843 675.124C430.843 675.124 384.477 648.902 336.904 622.142L241.379 683.895C250.103 686.92 260.105 690.372 270.795 694.057C284.879 698.92 299.024 697.387 314.226 702.747C323.808 706.127 329.228 712.442 345.848 718.208C362.468 723.984 365.572 719.03 376.053 722.949C388.75 727.69 390.387 735.121 406.258 740.542L414.722 718.015L427.12 725.517L423.406 728.786L438.818 739.131L439.227 740.237L469.322 726.675V726.654H469.352L475.242 724.005L475.252 724.015Z" fill="#141D30"/>
<path d="M561.444 593.27C555.495 561.993 513.342 549.232 473.335 571.058C433.338 592.884 287.934 675.114 287.934 675.114L312.529 740.532C328.39 735.101 330.027 727.68 342.733 722.939C353.204 719.03 356.319 723.974 372.938 718.208C389.558 712.432 394.978 706.128 404.561 702.747C419.763 697.387 433.917 698.92 447.991 694.057C471.728 685.875 492.15 678.799 502.532 675.124C544.665 660.191 567.393 624.548 561.444 593.27Z" fill="#26395E"/>
<path d="M324.427 726.106L309.794 662.769C305.093 665.419 300.99 667.743 297.656 669.632L324.427 726.106Z" fill="#141D30"/>
<path d="M297.656 682.819L449.678 584.144" stroke="#141D30" stroke-width="1.81" stroke-miterlimit="10"/>
<path d="M297.436 680.971L266.133 699.112L272.092 737.354L311.72 713.376L297.436 680.971Z" fill="white"/>
<path d="M275.796 691.641L273.74 721.842L280.967 716.097L295.371 728.786L279.959 739.131L267.971 771.282L262.69 791.179C261.992 793.829 258.758 794.692 256.831 792.773C252.419 788.377 246.26 779.87 245.781 766.368C245.003 744.44 249.445 726.664 249.445 726.664L243.805 727.619L241.719 701.793L247.708 701.376C247.708 701.376 258.638 689.661 275.787 691.641" fill="#141D30"/>
<path d="M248.617 704.087L250.374 723.223" stroke="#496EB5" stroke-width="1.63" stroke-miterlimit="10"/>
<path d="M312.53 740.542C319.338 738.207 323.53 735.517 327.094 732.817L301.181 667.642C292.886 672.332 287.945 675.124 287.945 675.124L312.54 740.542H312.53Z" fill="#496EB5"/>
<path d="M108.673 518.076C100.418 513.467 117.447 473.002 117.447 473.002L131.8 479.286C131.8 479.286 116.987 522.715 108.683 518.076" fill="#ABABAB"/>
<path d="M137.797 481.915L106.344 468.139C106.344 468.139 108.351 458.789 101.074 451.754C96.9217 447.734 91.6513 443.795 91.6513 443.795L88.4172 446.851L93.9871 453.592L93.8174 462.129L78.5652 462.17L60.8276 456.607L59.51 460.931L57.4837 459.896L55.2578 466.18L59.0209 468.454L57.2841 472.982L64.99 478.646L73.5045 480.504L63.8821 480.606L58.412 477.205L57.2941 480.606L64.1915 484.626C64.1915 484.626 79.6932 490.849 97.2311 486.585L125.909 511.254L137.797 481.915Z" fill="#FF8C8C"/>
<path d="M125.901 511.254L137.79 481.915L113.324 471.195C115.44 479.804 115.42 489.539 113.933 500.96L125.891 511.244L125.901 511.254Z" fill="#D45151"/>
<path d="M111.516 541.577C104.319 537.598 115.399 515.71 115.399 515.71L138.756 525.852C138.756 525.852 119.442 545.963 111.516 541.577Z" fill="#141D30"/>
<path d="M143.137 483.448L125.709 476.504C125.709 476.504 120.708 513.548 108.68 518.086L143.137 540.146V483.458V483.448Z" fill="white"/>
<path d="M229.013 567.139C229.842 566.236 230.341 565.363 230.56 564.51C199.207 553.912 169.462 563.393 159.859 585.179C178.555 599.645 214.07 583.413 229.013 567.129" fill="#141D30"/>
<path d="M251.961 375.291L273.043 470.302L246.89 542.745C236.24 572.246 202.951 586.022 175.072 572.479L111.508 541.577C111.508 541.577 126.91 545.699 143.13 483.438L186.511 502.402L233.535 412.112C233.535 412.112 233.505 396.173 251.961 375.281" fill="#26395E"/>
<path d="M128.555 524.624L174.89 547.76" stroke="#141D30" stroke-width="1.81" stroke-miterlimit="10"/>
<path d="M146.882 521.071C146.882 522.837 145.475 524.268 143.738 524.268C142.001 524.268 140.594 522.837 140.594 521.071C140.594 519.304 142.001 517.873 143.738 517.873C145.475 517.873 146.882 519.304 146.882 521.071Z" fill="#DEDEDE"/>
<path d="M165.027 531.03C165.027 532.796 163.619 534.227 161.883 534.227C160.146 534.227 158.738 532.796 158.738 531.03C158.738 529.263 160.146 527.832 161.883 527.832C163.619 527.832 165.027 529.263 165.027 531.03Z" fill="#DEDEDE"/>
<path d="M186.508 502.412L214.347 515.051" stroke="#141D30" stroke-width="1.81" stroke-miterlimit="10"/>
<path d="M193.715 501.173L222.392 502.412" stroke="#141D30" stroke-width="1.81" stroke-miterlimit="10"/>
<path d="M258.507 404.772C256.651 410.985 252.368 429.491 256.182 458.393C256.651 461.967 256.391 465.632 255.263 469.053C248.605 489.275 253.447 508.279 256.331 516.624L273.051 470.301L258.507 404.772Z" fill="#141D30"/>
<path d="M59.5195 460.921L77.2571 467.368L83.4758 467.916" stroke="#D45151" stroke-width="2.37" stroke-miterlimit="10"/>
<path d="M59.0312 468.454L70.9095 473.753L81.3804 474.717" stroke="#D45151" stroke-width="2.37" stroke-miterlimit="10"/>
<path d="M84.3573 465.388L80.5742 478.839" stroke="#D45151" stroke-width="2.37" stroke-miterlimit="10"/>
<path d="M83.4766 477.52C87.3994 474.444 94.6262 471.002 101.244 475.469" stroke="#D45151" stroke-width="2.37" stroke-miterlimit="10"/>
<path d="M610.126 518.076C618.38 513.467 601.352 473.002 601.352 473.002L587.008 479.286C587.008 479.286 601.821 522.715 610.126 518.076Z" fill="#ABABAB"/>
<path d="M580.998 481.915L612.451 468.139C612.451 468.139 610.444 458.789 617.721 451.754C621.874 447.734 627.144 443.795 627.144 443.795L630.378 446.851L624.798 453.592L624.968 462.129L640.22 462.17L657.958 456.607L659.275 460.931L661.302 459.896L663.527 466.18L659.764 468.454L661.501 472.982L653.795 478.646L645.281 480.504L654.903 480.606L660.373 477.205L661.491 480.606L654.594 484.626C654.594 484.626 639.092 490.849 621.554 486.585L592.877 511.254L580.988 481.915H580.998Z" fill="#FF8C8C"/>
<path d="M592.896 511.254L581.008 481.915L605.473 471.195C603.357 479.804 603.377 489.539 604.864 500.96L592.906 511.244L592.896 511.254Z" fill="#D45151"/>
<path d="M607.279 541.577C614.476 537.598 603.396 515.71 603.396 515.71L580.039 525.852C580.039 525.852 599.354 545.963 607.279 541.577Z" fill="#141D30"/>
<path d="M575.668 483.448L593.096 476.504C593.096 476.504 598.097 513.548 610.125 518.086L575.668 540.146V483.458V483.448Z" fill="white"/>
<path d="M489.785 567.139C488.957 566.236 488.458 565.363 488.238 564.51C519.591 553.912 549.337 563.393 558.939 585.179C540.243 599.645 504.728 583.413 489.785 567.129" fill="#141D30"/>
<path d="M466.835 375.291L445.754 470.302L471.906 542.745C482.557 572.246 515.846 586.022 543.725 572.479L607.289 541.577C607.289 541.577 591.887 545.699 575.667 483.438L532.286 502.402L485.262 412.112C485.262 412.112 485.292 396.173 466.835 375.281" fill="#26395E"/>
<path d="M590.242 524.624L543.906 547.76" stroke="#141D30" stroke-width="1.81" stroke-miterlimit="10"/>
<path d="M571.914 521.071C571.914 522.837 573.321 524.268 575.058 524.268C576.795 524.268 578.203 522.837 578.203 521.071C578.203 519.304 576.795 517.873 575.058 517.873C573.321 517.873 571.914 519.304 571.914 521.071Z" fill="#DEDEDE"/>
<path d="M553.77 531.03C553.77 532.796 555.177 534.227 556.914 534.227C558.651 534.227 560.058 532.796 560.058 531.03C560.058 529.263 558.651 527.832 556.914 527.832C555.177 527.832 553.77 529.263 553.77 531.03Z" fill="#DEDEDE"/>
<path d="M532.288 502.412L504.449 515.051" stroke="#141D30" stroke-width="1.81" stroke-miterlimit="10"/>
<path d="M525.082 501.173L496.414 502.412" stroke="#141D30" stroke-width="1.81" stroke-miterlimit="10"/>
<path d="M460.29 404.772C462.146 410.985 466.428 429.491 462.615 458.393C462.146 461.967 462.406 465.632 463.534 469.053C470.191 489.275 465.35 508.279 462.466 516.624L445.746 470.301L460.29 404.772Z" fill="#141D30"/>
<path d="M659.274 460.921L641.537 467.368L635.328 467.916" stroke="#D45151" stroke-width="2.37" stroke-miterlimit="10"/>
<path d="M659.763 468.454L647.895 473.753L637.414 474.717" stroke="#D45151" stroke-width="2.37" stroke-miterlimit="10"/>
<path d="M634.449 465.388L638.232 478.839" stroke="#D45151" stroke-width="2.37" stroke-miterlimit="10"/>
<path d="M635.33 477.52C631.407 474.444 624.18 471.002 617.562 475.469" stroke="#D45151" stroke-width="2.37" stroke-miterlimit="10"/>
<path d="M376.234 317.568H359.345H342.456L340.699 349.729L359.345 360.855L377.991 349.729L376.234 317.568Z" fill="#FF8C8C"/>
<path d="M363.877 369.931H354.813L350.531 355.15H368.159L363.877 369.931Z" fill="#125EC9"/>
<path d="M365.76 339.943C368.655 339.943 372.887 339.232 377.309 337.242L376.231 317.568H342.443L341.914 327.344C349.211 337.232 360.071 339.943 365.76 339.943Z" fill="#D45151"/>
<path d="M340.177 302.239C342.313 306.432 341.145 311.365 337.571 313.243C333.998 315.122 329.366 313.243 327.24 309.051C325.104 304.858 326.272 299.924 329.845 298.046C333.419 296.168 338.05 298.046 340.187 302.239" fill="#D45151"/>
<path d="M329.559 304.422C330.577 299.843 335.468 299.386 339.53 304.645" stroke="#FF8C8C" stroke-width="1.68" stroke-miterlimit="10"/>
<path d="M378.51 302.239C376.374 306.432 377.541 311.365 381.115 313.243C384.688 315.122 389.31 313.243 391.446 309.051C393.582 304.858 392.414 299.924 388.841 298.046C385.267 296.168 380.636 298.046 378.5 302.239" fill="#D45151"/>
<path d="M389.128 304.422C388.11 299.843 383.219 299.386 379.156 304.645" stroke="#FF8C8C" stroke-width="1.68" stroke-miterlimit="10"/>
<path d="M382.07 292.991C379.116 289.58 377.808 285.011 378.487 280.524C378.776 278.616 377.319 276.89 375.423 276.89H343.261C341.365 276.89 339.908 278.616 340.197 280.524C340.876 285.011 339.568 289.58 336.614 292.991L334.617 295.305C335.965 323.893 352.455 330.217 359.352 330.217C366.249 330.217 382.729 323.893 384.087 295.305L382.09 292.991H382.07Z" fill="#FF8C8C"/>
<path d="M344.281 296.402C346.447 299.285 351.109 299.224 354.143 296.127" stroke="#142F61" stroke-width="1.78" stroke-miterlimit="10"/>
<path d="M342.664 289.671C346.517 287.539 350.839 287.194 354.692 289.671" stroke="#142F61" stroke-width="2.37" stroke-miterlimit="10"/>
<path d="M374.397 296.402C372.231 299.285 367.57 299.224 364.535 296.127" stroke="#142F61" stroke-width="1.78" stroke-miterlimit="10"/>
<path d="M376.024 289.671C372.171 287.539 367.849 287.194 363.996 289.671" stroke="#142F61" stroke-width="2.37" stroke-miterlimit="10"/>
<path d="M358.195 293.173V303.741L362.907 302.757" stroke="#D45151" stroke-width="2.37" stroke-miterlimit="10"/>
<path d="M351.27 307.142C351.27 307.142 357.618 311.609 367.42 307.142" stroke="#142F61" stroke-width="2.37" stroke-miterlimit="10"/>
<path d="M356.547 313.578H362.137" stroke="#D45151" stroke-width="2.37" stroke-miterlimit="10"/>
<path d="M357.156 355.15L351.127 368.256L331.562 353.302L336.613 343.892L357.156 355.15Z" fill="white"/>
<path d="M361.531 355.15L367.56 368.256L387.124 353.302L382.074 343.892L361.531 355.15Z" fill="white"/>
<path d="M363.874 369.931H354.82C354.82 369.931 355.569 394.945 362.726 408.132C375.513 431.684 403.671 426.822 410.828 437.684C417.995 448.546 425.691 465.175 459.749 460.089L480.561 439.339L458.94 429.167C458.94 429.167 444.207 435.491 434.485 424.223C424.753 412.954 416.378 409.381 402.733 409.787C389.088 410.203 366.649 402.498 363.884 369.931" fill="#125EC9"/>
<path d="M365.221 378.743C364.602 376.022 364.143 373.098 363.874 369.921H354.82C354.82 369.921 354.82 370.215 354.85 370.733C357.905 372.581 362.227 375.494 365.221 378.743Z" fill="#0E4899"/>
</g>
<defs>
<clipPath id="clip0_89_1716">
<rect width="717" height="1024" fill="white"/>
</clipPath>
</defs>
</svg>
