<svg width="28" height="30" viewBox="3 3 22 24" fill="none" xmlns="http://www.w3.org/2000/svg">
<path d="M4.66602 15.25C4.66602 13.3644 4.66602 12.4216 5.2518 11.8358C5.83759 11.25 6.7804 11.25 8.66602 11.25H19.3327C21.2183 11.25 22.1611 11.25 22.7469 11.8358C23.3327 12.4216 23.3327 13.3644 23.3327 15.25V20.25C23.3327 23.0784 23.3327 24.4926 22.454 25.3713C21.5753 26.25 20.1611 26.25 17.3327 26.25H10.666C7.83759 26.25 6.42337 26.25 5.5447 25.3713C4.66602 24.4926 4.66602 23.0784 4.66602 20.25V15.25Z" fill="white" stroke="#044766" stroke-width="1.2"/>
<path d="M18.6654 10V8.41667C18.6654 5.83934 16.576 3.75 13.9987 3.75V3.75C11.4214 3.75 9.33203 5.83934 9.33203 8.41667V10" stroke="#044766" stroke-width="1.2" stroke-linecap="round"/>
<path d="M15.8327 18.75C15.8327 19.8876 14.9799 20.75 13.9993 20.75C13.0188 20.75 12.166 19.8876 12.166 18.75C12.166 17.6124 13.0188 16.75 13.9993 16.75C14.9799 16.75 15.8327 17.6124 15.8327 18.75Z" fill="#5DB03E" stroke="#5DB03E"/>
</svg>
