<svg width="32" height="32" viewBox="3 3 26 26" fill="none" xmlns="http://www.w3.org/2000/svg">
<path d="M6 10L11.3333 7.33334V20.6667L7.33333 22.6667H6V10Z" fill="#5DB03E"/>
<path d="M26 20.6667L20.6667 23.3333V10L24.6667 8.00001H26V20.6667Z" fill="#5DB03E"/>
<path d="M26 20.3886V8.06146C26 7.72694 25.648 7.50936 25.3488 7.65897L20.8232 9.92173C20.7225 9.97208 20.6066 9.98285 20.4984 9.95192L11.5016 7.38143C11.3934 7.3505 11.2775 7.36127 11.1768 7.41163L6.24875 9.87563C6.0963 9.95186 6 10.1077 6 10.2781V22.6052C6 22.9397 6.35204 23.1573 6.65125 23.0077L11.1768 20.745C11.2775 20.6946 11.3934 20.6838 11.5016 20.7148L16 22L20.4984 23.2853C20.6066 23.3162 20.7225 23.3054 20.8232 23.2551L25.7512 20.7911C25.9037 20.7148 26 20.559 26 20.3886Z" stroke="#044766"/>
<path d="M20.668 23.3333V10" stroke="#044766"/>
<path d="M11.332 20.6667V7.33334" stroke="#044766"/>
<path d="M12 8.12197L20 10.465V22.622L12 20.3323V8.12197Z" fill="white"/>
</svg>
