<svg width="32" height="32" viewBox="3 3 26 26" fill="none" xmlns="http://www.w3.org/2000/svg">
<path d="M24.6654 28.6667L16.6654 8.66667M28.6654 6L3.33203 11.3333" stroke="#5DB03E"/>
<path d="M3.33203 6.53333C3.33203 5.41322 3.33203 4.85317 3.55002 4.42535C3.74176 4.04902 4.04773 3.74306 4.42405 3.55132C4.85187 3.33333 5.41193 3.33333 6.53203 3.33333H25.4654C26.5855 3.33333 27.1455 3.33333 27.5733 3.55132C27.9497 3.74306 28.2556 4.04902 28.4474 4.42535C28.6654 4.85317 28.6654 5.41322 28.6654 6.53333V25.4667C28.6654 26.5868 28.6654 27.1468 28.4474 27.5746C28.2556 27.951 27.9497 28.2569 27.5733 28.4487C27.1455 28.6667 26.5855 28.6667 25.4654 28.6667H6.53204C5.41193 28.6667 4.85187 28.6667 4.42405 28.4487C4.04773 28.2569 3.74176 27.951 3.55002 27.5746C3.33203 27.1468 3.33203 26.5868 3.33203 25.4667V6.53333Z" stroke="#044766" stroke-linecap="round"/>
<path d="M16.6654 20.0392C16.6654 23.0313 13.5815 25.0978 12.4276 25.7663C12.1608 25.9209 11.8366 25.9209 11.5698 25.7663C10.4159 25.0978 7.33203 23.0313 7.33203 20.0392C7.33203 17.2157 9.59319 15.3333 11.9987 15.3333C14.4876 15.3333 16.6654 17.2157 16.6654 20.0392Z" fill="white" stroke="#044766"/>
<circle cx="12.0013" cy="20" r="1.33333" fill="#5DB03E"/>
</svg>
