<svg width="32" height="32" viewBox="3 2 26 28" fill="none" xmlns="http://www.w3.org/2000/svg">
<path d="M25.3346 12C25.3346 18.8418 18.1927 22.8962 16.4038 23.8044C16.1498 23.9334 15.8528 23.9334 15.5988 23.8044C13.8099 22.8962 6.66797 18.8418 6.66797 12C6.66797 6.84533 10.8466 2.66666 16.0013 2.66666C21.156 2.66666 25.3346 6.84533 25.3346 12Z" fill="white"/>
<path d="M16.4038 23.8044L16.6754 24.3394L16.4038 23.8044ZM15.5988 23.8044L15.8704 23.2694L15.5988 23.8044ZM24.7346 12C24.7346 15.1985 23.0667 17.778 21.1186 19.7002C19.1719 21.6211 17.0002 22.8287 16.1322 23.2694L16.6754 24.3394C17.5963 23.8719 19.8901 22.5982 21.9615 20.5544C24.0316 18.5118 25.9346 15.6433 25.9346 12H24.7346ZM15.8704 23.2694C15.0024 22.8287 12.8307 21.6211 10.884 19.7002C8.93587 17.778 7.26797 15.1985 7.26797 12H6.06797C6.06797 15.6433 7.97102 18.5118 10.0411 20.5544C12.1125 22.5982 14.4063 23.8719 15.3272 24.3394L15.8704 23.2694ZM7.26797 12C7.26797 7.1767 11.178 3.26666 16.0013 3.26666V2.06666C10.5153 2.06666 6.06797 6.51396 6.06797 12H7.26797ZM16.0013 3.26666C20.8246 3.26666 24.7346 7.1767 24.7346 12H25.9346C25.9346 6.51396 21.4873 2.06666 16.0013 2.06666V3.26666ZM16.1322 23.2694C16.0489 23.3117 15.9537 23.3117 15.8704 23.2694L15.3272 24.3394C15.7519 24.555 16.2507 24.555 16.6754 24.3394L16.1322 23.2694Z" fill="#044766"/>
<path d="M26.3923 23.3333C27.4455 23.9414 28 24.6312 28 25.3333C28 26.0355 27.4455 26.7253 26.3923 27.3333C25.3391 27.9414 23.8242 28.4464 22 28.7974C20.1758 29.1485 18.1064 29.3333 16 29.3333C13.8936 29.3333 11.8242 29.1485 10 28.7974C8.17577 28.4464 6.66092 27.9414 5.6077 27.3333C4.55448 26.7253 4 26.0355 4 25.3333C4 24.6312 4.55447 23.9414 5.60769 23.3333" stroke="#044766" stroke-width="1.2" stroke-linecap="round"/>
<circle cx="16" cy="12" r="4" fill="#5DB03E"/>
</svg>
