<svg width="19" height="19" viewBox="0 0 19 19" fill="none" xmlns="http://www.w3.org/2000/svg">
<path fill-rule="evenodd" clip-rule="evenodd" d="M11.1898 2.66128L11.1898 2.6613C11.2212 2.97548 11.2369 3.13256 11.2696 3.23398C11.4589 3.82065 12.1287 4.09808 12.6773 3.81705C12.7721 3.76846 12.8943 3.66849 13.1387 3.46856C13.268 3.36271 13.3327 3.30979 13.3949 3.27244C13.7427 3.06354 14.1822 3.08546 14.5075 3.32793C14.5656 3.37128 14.6247 3.43038 14.7429 3.54857L15.4503 4.2559L15.4503 4.25592C15.5685 4.3741 15.6276 4.4332 15.6709 4.49136C15.9134 4.81662 15.9353 5.25614 15.7264 5.60391C15.689 5.6661 15.6361 5.73078 15.5303 5.86015L15.5303 5.86016L15.5303 5.86017C15.3303 6.10454 15.2303 6.22673 15.1818 6.32158C14.9007 6.87021 15.1782 7.53998 15.7648 7.7292C15.8662 7.76192 16.0233 7.77763 16.3375 7.80905L16.3376 7.80905C16.5039 7.82568 16.5871 7.834 16.6574 7.85156C17.0511 7.94977 17.3463 8.27605 17.4049 8.67748C17.4154 8.74927 17.4154 8.83285 17.4154 9.00002V10.0004C17.4154 10.1675 17.4154 10.251 17.4049 10.3228C17.3464 10.7243 17.051 11.0506 16.6574 11.1488C16.587 11.1663 16.5039 11.1746 16.3376 11.1913L16.3376 11.1913C16.0236 11.2227 15.8666 11.2384 15.7653 11.271C15.1785 11.4602 14.901 12.1302 15.1821 12.6789C15.2307 12.7736 15.3306 12.8957 15.5304 13.1399L15.5304 13.1399C15.6362 13.2692 15.689 13.3338 15.7264 13.396C15.9353 13.7438 15.9134 14.1834 15.6709 14.5087C15.6276 14.5668 15.5685 14.6259 15.4504 14.744L14.743 15.4514C14.6248 15.5696 14.5657 15.6287 14.5075 15.672C14.1822 15.9145 13.7427 15.9364 13.3949 15.7275C13.3328 15.6902 13.2681 15.6373 13.1387 15.5314C12.8943 15.3315 12.7722 15.2315 12.6773 15.1829C12.1287 14.9019 11.4589 15.1793 11.2697 15.766C11.237 15.8674 11.2213 16.0245 11.1898 16.3388L11.1898 16.3388L11.1898 16.3389C11.1732 16.5053 11.1649 16.5886 11.1473 16.659C11.0491 17.0525 10.7228 17.3478 10.3215 17.4063C10.2496 17.4168 10.166 17.4168 9.99874 17.4168H8.99856C8.83139 17.4168 8.7478 17.4168 8.67602 17.4064C8.27458 17.3478 7.9483 17.0525 7.8501 16.6589C7.83253 16.5885 7.82422 16.5054 7.80758 16.339L7.80758 16.339C7.77616 16.0248 7.76045 15.8677 7.72773 15.7663C7.53851 15.1796 6.86875 14.9022 6.32013 15.1832C6.22527 15.2318 6.10307 15.3318 5.85867 15.5318L5.85867 15.5318C5.72929 15.6376 5.66459 15.6906 5.6024 15.7279C5.25463 15.9368 4.81513 15.9149 4.48987 15.6724C4.4317 15.6291 4.3726 15.57 4.2544 15.4518L4.25439 15.4517L3.54708 14.7444C3.42888 14.6262 3.36978 14.5671 3.32642 14.509C3.08397 14.1837 3.06204 13.7442 3.27093 13.3964C3.30828 13.3342 3.36121 13.2695 3.46706 13.1402L3.46707 13.1402C3.66702 12.8958 3.76699 12.7736 3.81558 12.6787C4.09661 12.1301 3.81917 11.4603 3.23252 11.2711C3.13109 11.2384 2.97401 11.2227 2.65983 11.1913L2.65981 11.1913C2.4935 11.1746 2.41034 11.1663 2.33996 11.1488C1.94634 11.0506 1.65105 10.7243 1.5925 10.3228C1.58203 10.251 1.58203 10.1675 1.58203 10.0003V9.0001C1.58203 8.83286 1.58203 8.74924 1.59251 8.67742C1.65109 8.27603 1.94632 7.9498 2.33989 7.85158C2.41031 7.834 2.49351 7.82568 2.65993 7.80904C2.97428 7.77761 3.13145 7.76189 3.23293 7.72914C3.81947 7.53988 4.09685 6.87023 3.81593 6.32166C3.76733 6.22675 3.66729 6.10448 3.46721 5.85994C3.36126 5.73044 3.30829 5.6657 3.27091 5.60346C3.0621 5.25573 3.08402 4.81632 3.32639 4.49109C3.36977 4.43288 3.42892 4.37374 3.54721 4.25545L3.54721 4.25544L4.25442 3.54823C4.37263 3.43002 4.43174 3.37092 4.4899 3.32756C4.81516 3.08511 5.25467 3.06319 5.60244 3.27207C5.66463 3.30943 5.72934 3.36237 5.85877 3.46827C6.10309 3.66817 6.22525 3.76811 6.32004 3.81668C6.86872 4.09782 7.53863 3.82034 7.72781 3.23357C7.76049 3.1322 7.77619 2.9752 7.80759 2.66121L7.80759 2.6612L7.8076 2.66118C7.82422 2.49496 7.83253 2.41185 7.85007 2.34151C7.94826 1.94782 8.2746 1.65248 8.67611 1.59395C8.74785 1.5835 8.83138 1.5835 8.99844 1.5835H9.99885C10.166 1.5835 10.2496 1.5835 10.3214 1.59397C10.7228 1.65252 11.0491 1.9478 11.1473 2.34143C11.1649 2.41181 11.1732 2.49497 11.1898 2.66128ZM9.4987 12.6668C11.2476 12.6668 12.6654 11.2491 12.6654 9.50016C12.6654 7.75126 11.2476 6.3335 9.4987 6.3335C7.7498 6.3335 6.33203 7.75126 6.33203 9.50016C6.33203 11.2491 7.7498 12.6668 9.4987 12.6668Z" fill="#E8F0FF"/>
<path d="M11.1898 2.6613L11.7868 2.6016L11.7861 2.59423L11.7852 2.58688L11.1898 2.6613ZM11.1898 2.66128L10.5928 2.72098L10.5935 2.72835L10.5944 2.7357L11.1898 2.66128ZM11.2696 3.23398L10.6986 3.41816V3.41816L11.2696 3.23398ZM12.6773 3.81705L12.9508 4.35106L12.9508 4.35106L12.6773 3.81705ZM13.1387 3.46856L12.7587 3.00418V3.00418L13.1387 3.46856ZM13.3949 3.27244L13.7039 3.78679L13.7039 3.78678L13.3949 3.27244ZM14.5075 3.32793L14.8661 2.84688L14.8661 2.84688L14.5075 3.32793ZM14.7429 3.54857L14.3187 3.97283V3.97283L14.7429 3.54857ZM15.4503 4.2559L15.8745 3.83163L15.4503 4.2559ZM15.4503 4.25592L15.8745 3.83165L15.8745 3.83165L15.4503 4.25592ZM15.6709 4.49136L15.1899 4.84995L15.1899 4.84995L15.6709 4.49136ZM15.7264 5.60391L16.2407 5.91286L16.2407 5.91286L15.7264 5.60391ZM15.5303 5.86015L15.0659 5.48018L15.0618 5.48533L15.5303 5.86015ZM15.5303 5.86016L15.0617 5.48534L15.0559 5.49266L15.0503 5.50016L15.5303 5.86016ZM15.5303 5.86017L15.9946 6.24012L16.0027 6.23031L16.0103 6.22017L15.5303 5.86017ZM15.1818 6.32158L15.7158 6.59512L15.7158 6.59512L15.1818 6.32158ZM15.7648 7.7292L15.5806 8.30023H15.5806L15.7648 7.7292ZM16.3376 7.80905L16.2779 8.40607H16.2779L16.3376 7.80905ZM16.6574 7.85156L16.5122 8.43372H16.5122L16.6574 7.85156ZM17.4049 8.67748L17.9986 8.59088V8.59088L17.4049 8.67748ZM17.4049 10.3228L17.9986 10.4093V10.4093L17.4049 10.3228ZM16.6574 11.1488L16.8026 11.731L16.8026 11.7309L16.6574 11.1488ZM16.3376 11.1913L16.2779 10.5942L16.2653 10.5955L16.2528 10.5973L16.3376 11.1913ZM16.3376 11.1913L16.3973 11.7883L16.4099 11.787L16.4225 11.7852L16.3376 11.1913ZM15.7653 11.271L15.9494 11.8421H15.9494L15.7653 11.271ZM15.1821 12.6789L15.7161 12.4052L15.7161 12.4052L15.1821 12.6789ZM15.5304 13.1399L16.0104 12.7799L16.0028 12.7698L15.9948 12.76L15.5304 13.1399ZM15.5304 13.1399L15.0504 13.4999L15.058 13.5101L15.066 13.5199L15.5304 13.1399ZM15.7264 13.396L16.2407 13.087L16.2407 13.087L15.7264 13.396ZM15.6709 14.5087L16.1519 14.8673L16.1519 14.8673L15.6709 14.5087ZM14.5075 15.672L14.8661 16.1531L14.8661 16.1531L14.5075 15.672ZM13.3949 15.7275L13.086 16.2419L13.3949 15.7275ZM13.1387 15.5314L12.7588 15.9958L12.7588 15.9958L13.1387 15.5314ZM12.6773 15.1829L12.9509 14.6489L12.9509 14.6489L12.6773 15.1829ZM11.2697 15.766L10.6987 15.5818L10.6987 15.5818L11.2697 15.766ZM11.1898 16.3388L11.7852 16.4132L11.7861 16.4059L11.7869 16.3985L11.1898 16.3388ZM11.1898 16.3389L10.5945 16.2645L10.5935 16.2718L10.5928 16.2792L11.1898 16.3389ZM11.1473 16.659L11.7294 16.8043V16.8043L11.1473 16.659ZM10.3215 17.4063L10.4081 18.0001H10.4081L10.3215 17.4063ZM8.67602 17.4064L8.76262 16.8126H8.76262L8.67602 17.4064ZM7.8501 16.6589L8.43225 16.5137L8.43225 16.5137L7.8501 16.6589ZM7.80758 16.339L7.20958 16.3889L7.21056 16.3987L7.80758 16.339ZM7.80758 16.339L8.40559 16.2892L8.40461 16.2793L7.80758 16.339ZM7.72773 15.7663L8.29876 15.5821L8.29876 15.5821L7.72773 15.7663ZM6.32013 15.1832L6.59366 15.7172L6.59366 15.7172L6.32013 15.1832ZM5.85867 15.5318L5.47873 15.0674L5.45557 15.0863L5.43441 15.1075L5.85867 15.5318ZM5.85867 15.5318L6.23861 15.9961L6.26177 15.9772L6.28293 15.956L5.85867 15.5318ZM5.6024 15.7279L5.91133 16.2423L5.91134 16.2423L5.6024 15.7279ZM4.48987 15.6724L4.13128 16.1535L4.13129 16.1535L4.48987 15.6724ZM4.2544 15.4518L3.83013 15.876L3.83013 15.876L4.2544 15.4518ZM4.25439 15.4517L3.83012 15.876L4.25439 15.4517ZM3.54708 14.7444L3.97134 14.3202L3.54708 14.7444ZM3.32642 14.509L2.84536 14.8676L2.84536 14.8676L3.32642 14.509ZM3.27093 13.3964L3.78528 13.7054L3.27093 13.3964ZM3.46706 13.1402L3.93143 13.5201L3.93946 13.5103L3.94706 13.5002L3.46706 13.1402ZM3.46707 13.1402L3.0027 12.7602L2.99467 12.77L2.98707 12.7802L3.46707 13.1402ZM3.81558 12.6787L4.34959 12.9523H4.34959L3.81558 12.6787ZM3.23252 11.2711L3.04834 11.8421H3.04834L3.23252 11.2711ZM2.65983 11.1913L2.58425 11.7865L2.59218 11.7875L2.60013 11.7883L2.65983 11.1913ZM2.65981 11.1913L2.73539 10.5961L2.72746 10.595L2.71951 10.5943L2.65981 11.1913ZM2.33996 11.1488L2.19472 11.7309L2.19472 11.7309L2.33996 11.1488ZM1.5925 10.3228L0.998782 10.4094H0.998782L1.5925 10.3228ZM1.59251 8.67742L2.18622 8.76406L2.18622 8.76406L1.59251 8.67742ZM2.33989 7.85158L2.1946 7.26943H2.1946L2.33989 7.85158ZM2.65993 7.80904L2.71963 8.40606H2.71963L2.65993 7.80904ZM3.23293 7.72914L3.04868 7.15813H3.04868L3.23293 7.72914ZM3.81593 6.32166L3.28188 6.59514V6.59514L3.81593 6.32166ZM3.46721 5.85994L3.93158 5.47999L3.93158 5.47999L3.46721 5.85994ZM3.27091 5.60346L2.75653 5.91234L2.75653 5.91234L3.27091 5.60346ZM3.32639 4.49109L2.84529 4.13256H2.84529L3.32639 4.49109ZM3.54721 4.25545L3.12294 3.83118L3.12294 3.83118L3.54721 4.25545ZM3.54721 4.25544L3.12295 3.83118L3.54721 4.25544ZM4.25442 3.54823L4.67869 3.97249H4.67869L4.25442 3.54823ZM4.4899 3.32756L4.13132 2.8465L4.4899 3.32756ZM5.60244 3.27207L5.2935 3.78642L5.2935 3.78642L5.60244 3.27207ZM5.85877 3.46827L6.23871 3.00389L6.23871 3.00389L5.85877 3.46827ZM6.32004 3.81668L6.04643 4.35067L6.04643 4.35067L6.32004 3.81668ZM7.72781 3.23357L8.29886 3.41768L8.29887 3.41768L7.72781 3.23357ZM7.80759 2.66121L7.21362 2.57635L7.21183 2.5889L7.21057 2.60151L7.80759 2.66121ZM7.80759 2.6612L8.40166 2.74606L8.40296 2.73562L7.80759 2.6612ZM7.8076 2.66118L8.40296 2.73561L8.40388 2.72826L8.40462 2.72088L7.8076 2.66118ZM7.85007 2.34151L8.43224 2.4867L8.43224 2.4867L7.85007 2.34151ZM8.67611 1.59395L8.58956 1.00023H8.58956L8.67611 1.59395ZM10.3214 1.59397L10.408 1.00025V1.00025L10.3214 1.59397ZM11.1473 2.34143L10.5651 2.48667L10.5651 2.48667L11.1473 2.34143ZM11.7852 2.58688L11.7852 2.58686L10.5944 2.7357L10.5944 2.73572L11.7852 2.58688ZM11.8407 3.04981C11.8416 3.0528 11.835 3.03232 11.8242 2.94953C11.8137 2.86955 11.8029 2.76252 11.7868 2.6016L10.5928 2.721C10.6202 2.99549 10.6408 3.23897 10.6986 3.41816L11.8407 3.04981ZM12.4037 3.28303C12.1843 3.39544 11.9164 3.28447 11.8407 3.04981L10.6986 3.41816C11.0014 4.35682 12.073 4.80071 12.9508 4.35106L12.4037 3.28303ZM12.7587 3.00418C12.6336 3.10659 12.5503 3.17466 12.4863 3.22381C12.4201 3.27468 12.4009 3.28446 12.4037 3.28303L12.9508 4.35106C13.1184 4.26522 13.3051 4.10761 13.5186 3.93293L12.7587 3.00418ZM13.086 2.75809C12.9772 2.82343 12.8723 2.91128 12.7587 3.00418L13.5186 3.93293C13.6638 3.81414 13.6883 3.79615 13.7039 3.78679L13.086 2.75809ZM14.8661 2.84688C14.3456 2.45893 13.6424 2.42386 13.086 2.75809L13.7039 3.78678C13.843 3.70323 14.0188 3.71199 14.1489 3.80898L14.8661 2.84688ZM15.1672 3.12431C15.0634 3.02057 14.9678 2.92271 14.8661 2.84688L14.1489 3.80898C14.1635 3.81985 14.186 3.84019 14.3187 3.97283L15.1672 3.12431ZM15.8745 3.83163L15.1672 3.12431L14.3187 3.97283L15.026 4.68016L15.8745 3.83163ZM15.8745 3.83165L15.8745 3.83163L15.026 4.68016L15.026 4.68018L15.8745 3.83165ZM16.152 4.13277C16.0761 4.03104 15.9783 3.93539 15.8745 3.83165L15.026 4.68018C15.1586 4.81282 15.179 4.83537 15.1899 4.84995L16.152 4.13277ZM16.2407 5.91286C16.575 5.35642 16.5399 4.65319 16.152 4.13277L15.1899 4.84995C15.2868 4.98005 15.2956 5.15586 15.212 5.29497L16.2407 5.91286ZM15.9947 6.24009C16.0876 6.12654 16.1754 6.02163 16.2407 5.91286L15.212 5.29497C15.2027 5.31056 15.1847 5.33502 15.0659 5.4802L15.9947 6.24009ZM15.9988 6.23498L15.9988 6.23496L15.0618 5.48533L15.0617 5.48534L15.9988 6.23498ZM16.0103 6.22017L16.0103 6.22016L15.0503 5.50016L15.0503 5.50017L16.0103 6.22017ZM15.7158 6.59512C15.7143 6.59792 15.7241 6.57874 15.775 6.51254C15.8242 6.44858 15.8922 6.36528 15.9946 6.24012L15.0659 5.48023C14.8912 5.69373 14.7336 5.88046 14.6477 6.04804L15.7158 6.59512ZM15.949 7.15817C15.7143 7.08248 15.6034 6.81457 15.7158 6.59512L14.6477 6.04804C14.1981 6.92584 14.642 7.99748 15.5806 8.30023L15.949 7.15817ZM16.3972 7.21203C16.2363 7.19593 16.1293 7.18516 16.0493 7.17469C15.9665 7.16385 15.946 7.15721 15.949 7.15817L15.5806 8.30023C15.7598 8.35804 16.0033 8.37862 16.2778 8.40607L16.3972 7.21203ZM16.3973 7.21203L16.3972 7.21203L16.2778 8.40607L16.2779 8.40607L16.3973 7.21203ZM16.8027 7.26941C16.6796 7.23869 16.5432 7.22663 16.3973 7.21203L16.2779 8.40607C16.4645 8.42474 16.4945 8.42931 16.5122 8.43372L16.8027 7.26941ZM17.9986 8.59088C17.9049 7.94859 17.4325 7.42654 16.8027 7.26941L16.5122 8.43372C16.6696 8.473 16.7878 8.60351 16.8112 8.76408L17.9986 8.59088ZM18.0154 9.00002C18.0154 8.8533 18.0169 8.71645 17.9986 8.59088L16.8112 8.76408C16.8138 8.78208 16.8154 8.81241 16.8154 9.00002H18.0154ZM18.0154 10.0004V9.00002H16.8154V10.0004H18.0154ZM17.9986 10.4093C18.0169 10.2838 18.0154 10.147 18.0154 10.0004H16.8154C16.8154 10.1879 16.8138 10.2182 16.8112 10.2362L17.9986 10.4093ZM16.8026 11.7309C17.4325 11.5738 17.905 11.0517 17.9986 10.4093L16.8112 10.2362C16.7878 10.3968 16.6696 10.5273 16.5122 10.5666L16.8026 11.7309ZM16.3973 11.7883C16.5433 11.7737 16.6795 11.7616 16.8026 11.731L16.5122 10.5666C16.4945 10.571 16.4645 10.5756 16.2779 10.5942L16.3973 11.7883ZM16.4225 11.7852L16.4225 11.7852L16.2528 10.5973L16.2528 10.5973L16.4225 11.7852ZM15.9494 11.8421C15.9464 11.8431 15.9668 11.8364 16.0496 11.8256C16.1295 11.8151 16.2365 11.8044 16.3973 11.7883L16.2779 10.5943C16.0036 10.6217 15.7603 10.6423 15.5812 10.7L15.9494 11.8421ZM15.7161 12.4052C15.6036 12.1858 15.7146 11.9178 15.9494 11.8421L15.5812 10.7C14.6423 11.0027 14.1983 12.0746 14.6482 12.9525L15.7161 12.4052ZM15.9948 12.76C15.8924 12.6349 15.8244 12.5517 15.7753 12.4878C15.7245 12.4216 15.7147 12.4024 15.7161 12.4052L14.6482 12.9525C14.734 13.1199 14.8915 13.3065 15.066 13.5199L15.9948 12.76ZM16.0104 12.7799L16.0104 12.7799L15.0504 13.4999L15.0504 13.4999L16.0104 12.7799ZM16.2407 13.087C16.1754 12.9783 16.0876 12.8735 15.9948 12.76L15.066 13.5199C15.1847 13.6649 15.2027 13.6894 15.2121 13.705L16.2407 13.087ZM16.1519 14.8673C16.54 14.3469 16.575 13.6435 16.2407 13.087L15.2121 13.705C15.2957 13.8441 15.2869 14.0199 15.1899 14.1501L16.1519 14.8673ZM15.8747 15.1682C15.9783 15.0646 16.0761 14.969 16.1519 14.8673L15.1899 14.1501C15.179 14.1646 15.1587 14.1872 15.0261 14.3197L15.8747 15.1682ZM15.1672 15.8757L15.8747 15.1682L15.0261 14.3197L14.3187 15.0271L15.1672 15.8757ZM14.8661 16.1531C14.9678 16.0773 15.0635 15.9794 15.1672 15.8757L14.3187 15.0271C14.1861 15.1598 14.1635 15.1801 14.1489 15.191L14.8661 16.1531ZM13.086 16.2419C13.6424 16.5761 14.3457 16.541 14.8661 16.1531L14.1489 15.191C14.0188 15.288 13.843 15.2967 13.7039 15.2132L13.086 16.2419ZM12.7588 15.9958C12.8723 16.0887 12.9772 16.1765 13.086 16.2419L13.7039 15.2132C13.6883 15.2038 13.6638 15.1858 13.5187 15.067L12.7588 15.9958ZM12.4038 15.7169C12.401 15.7155 12.4201 15.7253 12.4864 15.7762C12.5503 15.8253 12.6336 15.8934 12.7588 15.9958L13.5187 15.067C13.3052 14.8924 13.1184 14.7348 12.9509 14.6489L12.4038 15.7169ZM11.8407 15.9502C11.9164 15.7155 12.1843 15.6045 12.4038 15.7169L12.9509 14.6489C12.0731 14.1993 11.0014 14.6432 10.6987 15.5818L11.8407 15.9502ZM11.7869 16.3985C11.803 16.2375 11.8137 16.1305 11.8242 16.0505C11.835 15.9676 11.8417 15.9472 11.8407 15.9502L10.6987 15.5818C10.6409 15.761 10.6203 16.0045 10.5928 16.2791L11.7869 16.3985ZM11.7852 16.4133L11.7852 16.4132L10.5945 16.2644L10.5945 16.2644L11.7852 16.4133ZM11.7852 16.4133L11.7852 16.4133L10.5945 16.2644L10.5945 16.2645L11.7852 16.4133ZM11.7294 16.8043C11.7602 16.6811 11.7722 16.5447 11.7868 16.3986L10.5928 16.2792C10.5741 16.466 10.5695 16.496 10.5651 16.5137L11.7294 16.8043ZM10.4081 18.0001C11.0503 17.9063 11.5723 17.434 11.7294 16.8043L10.5651 16.5137C10.5258 16.6711 10.3954 16.7892 10.2348 16.8126L10.4081 18.0001ZM9.99874 18.0168C10.1455 18.0168 10.2825 18.0184 10.4081 18.0001L10.2348 16.8126C10.2168 16.8153 10.1865 16.8168 9.99874 16.8168V18.0168ZM8.99856 18.0168H9.99874V16.8168H8.99856V18.0168ZM8.58941 18.0001C8.71499 18.0184 8.85183 18.0168 8.99856 18.0168V16.8168C8.81095 16.8168 8.78062 16.8153 8.76262 16.8126L8.58941 18.0001ZM7.26794 16.8042C7.42507 17.4339 7.94712 17.9064 8.58942 18.0001L8.76262 16.8126C8.60205 16.7892 8.47153 16.6711 8.43225 16.5137L7.26794 16.8042ZM7.21056 16.3987C7.22516 16.5447 7.23722 16.681 7.26794 16.8042L8.43225 16.5137C8.42785 16.496 8.42327 16.466 8.40461 16.2793L7.21056 16.3987ZM7.20966 16.3888L7.20966 16.3889L8.40551 16.2892L8.40551 16.2892L7.20966 16.3888ZM7.15671 15.9505C7.15574 15.9475 7.16238 15.968 7.17322 16.0507C7.1837 16.1307 7.19447 16.2378 7.21056 16.3987L8.40461 16.2793C8.37715 16.0048 8.35657 15.7613 8.29876 15.5821L7.15671 15.9505ZM6.59366 15.7172C6.81311 15.6048 7.08102 15.7158 7.15671 15.9505L8.29876 15.5821C7.996 14.6435 6.92438 14.1996 6.04659 14.6492L6.59366 15.7172ZM6.23862 15.9961C6.3638 15.8937 6.44711 15.8256 6.51107 15.7765C6.57728 15.7256 6.59646 15.7158 6.59366 15.7172L6.0466 14.6492C5.87899 14.7351 5.69225 14.8927 5.47873 15.0674L6.23862 15.9961ZM6.28293 15.956L6.28294 15.956L5.43441 15.1075L5.4344 15.1075L6.28293 15.956ZM5.91134 16.2423C6.02013 16.1769 6.12505 16.0891 6.23861 15.9961L5.47873 15.0674C5.33352 15.1862 5.30906 15.2042 5.29346 15.2136L5.91134 16.2423ZM4.13129 16.1535C4.6517 16.5414 5.35491 16.5765 5.91133 16.2423L5.29347 15.2136C5.15436 15.2971 4.97855 15.2883 4.84845 15.1914L4.13129 16.1535ZM3.83013 15.876C3.93388 15.9798 4.02954 16.0776 4.13128 16.1535L4.84845 15.1914C4.83387 15.1805 4.81132 15.1601 4.67866 15.0275L3.83013 15.876ZM3.83012 15.876L3.83013 15.876L4.67866 15.0275L4.67865 15.0275L3.83012 15.876ZM3.12282 15.1687L3.83012 15.876L4.67865 15.0275L3.97134 14.3202L3.12282 15.1687ZM2.84536 14.8676C2.9212 14.9693 3.01907 15.065 3.12282 15.1687L3.97134 14.3202C3.83869 14.1875 3.81835 14.165 3.80748 14.1504L2.84536 14.8676ZM2.75658 13.0875C2.42236 13.6439 2.45744 14.3471 2.84536 14.8676L3.80748 14.1504C3.71049 14.0203 3.70173 13.8445 3.78528 13.7054L2.75658 13.0875ZM3.00269 12.7602C2.90978 12.8738 2.82192 12.9787 2.75658 13.0875L3.78528 13.7054C3.79465 13.6898 3.81264 13.6653 3.93143 13.5201L3.00269 12.7602ZM2.98707 12.7802L2.98706 12.7802L3.94706 13.5002L3.94707 13.5002L2.98707 12.7802ZM3.28156 12.4052C3.28299 12.4024 3.27321 12.4216 3.22233 12.4878C3.17318 12.5517 3.10511 12.635 3.0027 12.7602L3.93144 13.5201C4.10613 13.3066 4.26375 13.1199 4.34959 12.9523L3.28156 12.4052ZM3.04834 11.8421C3.283 11.9178 3.39397 12.1857 3.28156 12.4052L4.34959 12.9523C4.79924 12.0745 4.35535 11.0028 3.4167 10.7001L3.04834 11.8421ZM2.60013 11.7883C2.76105 11.8044 2.86808 11.8152 2.94806 11.8256C3.03085 11.8365 3.05133 11.8431 3.04834 11.8421L3.4167 10.7001C3.2375 10.6423 2.99402 10.6217 2.71953 10.5943L2.60013 11.7883ZM2.58422 11.7865L2.58425 11.7865L2.73541 10.5961L2.73539 10.5961L2.58422 11.7865ZM2.19472 11.7309C2.31784 11.7616 2.45413 11.7737 2.60011 11.7883L2.71951 10.5943C2.53287 10.5756 2.50285 10.571 2.4852 10.5666L2.19472 11.7309ZM0.998782 10.4094C1.09246 11.0517 1.56492 11.5738 2.19472 11.7309L2.4852 10.5666C2.32775 10.5273 2.20964 10.3968 2.18622 10.2362L0.998782 10.4094ZM0.982031 10.0003C0.982031 10.147 0.980469 10.2839 0.998782 10.4094L2.18622 10.2362C2.18359 10.2182 2.18203 10.1879 2.18203 10.0003H0.982031ZM0.982031 9.0001V10.0003H2.18203V9.0001H0.982031ZM0.998801 8.59077C0.980467 8.7164 0.982031 8.85331 0.982031 9.0001H2.18203C2.18203 8.81241 2.1836 8.78207 2.18622 8.76406L0.998801 8.59077ZM2.1946 7.26943C1.5649 7.42659 1.09252 7.94857 0.998801 8.59077L2.18622 8.76406C2.20965 8.6035 2.32775 8.47301 2.48517 8.43372L2.1946 7.26943ZM2.60023 7.21202C2.45416 7.22662 2.31778 7.23869 2.1946 7.26943L2.48517 8.43372C2.50283 8.42931 2.53287 8.42474 2.71963 8.40606L2.60023 7.21202ZM3.04868 7.15813C3.05167 7.15717 3.03118 7.16382 2.94835 7.17466C2.86833 7.18514 2.76123 7.19592 2.60023 7.21202L2.71963 8.40606C2.99427 8.3786 3.23789 8.35801 3.41718 8.30015L3.04868 7.15813ZM3.28188 6.59514C3.39425 6.81457 3.2833 7.08243 3.04868 7.15813L3.41718 8.30015C4.35565 7.99734 4.79945 6.9259 4.34998 6.04817L3.28188 6.59514ZM3.00283 6.23988C3.10531 6.36513 3.17343 6.44849 3.22262 6.5125C3.27353 6.57875 3.28332 6.59794 3.28188 6.59514L4.34998 6.04817C4.26411 5.88049 4.10639 5.69364 3.93158 5.47999L3.00283 6.23988ZM2.75653 5.91234C2.82191 6.02122 2.90984 6.12622 3.00284 6.23988L3.93158 5.47999C3.81268 5.33466 3.79467 5.31018 3.78529 5.29457L2.75653 5.91234ZM2.84529 4.13256C2.4575 4.65292 2.42244 5.35598 2.75653 5.91234L3.78529 5.29457C3.70177 5.15548 3.71054 4.97972 3.80749 4.84963L2.84529 4.13256ZM3.12294 3.83118C3.01912 3.93501 2.92118 4.03073 2.84529 4.13256L3.80749 4.84963C3.81837 4.83503 3.83872 4.81246 3.97147 4.67971L3.12294 3.83118ZM3.12295 3.83118L3.12294 3.83118L3.97147 4.67971L3.97148 4.67971L3.12295 3.83118ZM3.83016 3.12397L3.12295 3.83118L3.97148 4.67971L4.67869 3.97249L3.83016 3.12397ZM4.13132 2.8465C4.02957 2.92234 3.93391 3.02021 3.83016 3.12397L4.67869 3.97249C4.81135 3.83983 4.8339 3.81949 4.84849 3.80862L4.13132 2.8465ZM5.91137 2.75772C5.35494 2.42351 4.65174 2.45858 4.13132 2.8465L4.84849 3.80862C4.97859 3.71164 5.15439 3.70287 5.2935 3.78642L5.91137 2.75772ZM6.23871 3.00389C6.12512 2.91095 6.02017 2.82306 5.91137 2.75772L5.2935 3.78642C5.3091 3.79579 5.33357 3.8138 5.47883 3.93264L6.23871 3.00389ZM6.59365 3.2827C6.59645 3.28414 6.57728 3.27435 6.51109 3.22348C6.44714 3.17434 6.36385 3.10628 6.23871 3.00389L5.47883 3.93264C5.69228 4.10729 5.87895 4.26485 6.04643 4.35067L6.59365 3.2827ZM7.15676 3.04945C7.08109 3.28416 6.81312 3.39516 6.59365 3.2827L6.04643 4.35067C6.92432 4.80049 7.99618 4.35651 8.29886 3.41768L7.15676 3.04945ZM7.21057 2.60151C7.19449 2.76233 7.18372 2.8693 7.17326 2.94924C7.16243 3.03198 7.15579 3.05244 7.15676 3.04945L8.29887 3.41768C8.35661 3.23858 8.37718 2.99524 8.40462 2.72091L7.21057 2.60151ZM7.21362 2.57634L7.21362 2.57635L8.40156 2.74606L8.40156 2.74605L7.21362 2.57634ZM7.21223 2.58676L7.21223 2.58678L8.40296 2.73562L8.40296 2.73561L7.21223 2.58676ZM7.26791 2.19631C7.23722 2.31936 7.22516 2.45559 7.21057 2.60148L8.40462 2.72088C8.42327 2.53434 8.42784 2.50434 8.43224 2.4867L7.26791 2.19631ZM8.58956 1.00023C7.94715 1.09387 7.42501 1.56641 7.26791 2.19631L8.43224 2.4867C8.47152 2.32922 8.60205 2.21109 8.76265 2.18768L8.58956 1.00023ZM8.99844 0.983496C8.85181 0.983496 8.71506 0.981935 8.58956 1.00023L8.76265 2.18768C8.78064 2.18506 8.81095 2.1835 8.99844 2.1835V0.983496ZM9.99885 0.983496H8.99844V2.1835H9.99885V0.983496ZM10.408 1.00025C10.2824 0.981934 10.1456 0.983496 9.99885 0.983496V2.1835C10.1864 2.1835 10.2168 2.18506 10.2348 2.18768L10.408 1.00025ZM11.7295 2.19618C11.5723 1.56639 11.0503 1.09393 10.408 1.00025L10.2348 2.18768C10.3953 2.2111 10.5259 2.32922 10.5651 2.48667L11.7295 2.19618ZM11.7868 2.60158C11.7722 2.4556 11.7602 2.3193 11.7295 2.19618L10.5651 2.48667C10.5695 2.50432 10.5741 2.53433 10.5928 2.72098L11.7868 2.60158ZM12.0654 9.50016C12.0654 10.9177 10.9162 12.0668 9.4987 12.0668V13.2668C11.579 13.2668 13.2654 11.5804 13.2654 9.50016H12.0654ZM9.4987 6.9335C10.9162 6.9335 12.0654 8.08263 12.0654 9.50016H13.2654C13.2654 7.41989 11.579 5.7335 9.4987 5.7335V6.9335ZM6.93203 9.50016C6.93203 8.08263 8.08117 6.9335 9.4987 6.9335V5.7335C7.41842 5.7335 5.73203 7.41989 5.73203 9.50016H6.93203ZM9.4987 12.0668C8.08117 12.0668 6.93203 10.9177 6.93203 9.50016H5.73203C5.73203 11.5804 7.41842 13.2668 9.4987 13.2668V12.0668Z" fill="#044766"/>
</svg>
