<svg width="32" height="32" viewBox="3 3 26 26" fill="none" xmlns="http://www.w3.org/2000/svg">
<circle cx="15.9993" cy="10.6666" r="5.33333" fill="#5DB03E" stroke="#044766" stroke-linecap="round"/>
<mask id="path-2-inside-1_53_200" fill="white">
<path fill-rule="evenodd" clip-rule="evenodd" d="M16.0002 17.3333C11.0414 17.3333 6.98589 20.6479 6.68481 24.8333C6.66499 25.1087 6.89073 25.3333 7.16688 25.3333H24.8335C25.1097 25.3333 25.3354 25.1087 25.3156 24.8333C25.0145 20.6479 20.959 17.3333 16.0002 17.3333Z"/>
</mask>
<path fill-rule="evenodd" clip-rule="evenodd" d="M16.0002 17.3333C11.0414 17.3333 6.98589 20.6479 6.68481 24.8333C6.66499 25.1087 6.89073 25.3333 7.16688 25.3333H24.8335C25.1097 25.3333 25.3354 25.1087 25.3156 24.8333C25.0145 20.6479 20.959 17.3333 16.0002 17.3333Z" fill="#DEE7EB"/>
<path d="M25.3156 24.8333L26.313 24.7615L25.3156 24.8333ZM6.68481 24.8333L5.68738 24.7615L6.68481 24.8333ZM7.68223 24.9051C7.93696 21.364 11.4349 18.3333 16.0002 18.3333V16.3333C10.648 16.3333 6.03482 19.9318 5.68738 24.7615L7.68223 24.9051ZM24.8335 24.3333H7.16688V26.3333H24.8335V24.3333ZM16.0002 18.3333C20.5655 18.3333 24.0635 21.364 24.3182 24.9051L26.313 24.7615C25.9656 19.9318 21.3524 16.3333 16.0002 16.3333V18.3333ZM24.8335 26.3333C25.6422 26.3333 26.3779 25.6629 26.313 24.7615L24.3182 24.9051C24.293 24.5546 24.5772 24.3333 24.8335 24.3333V26.3333ZM5.68738 24.7615C5.62254 25.6629 6.35823 26.3333 7.16688 26.3333V24.3333C7.42323 24.3333 7.70744 24.5546 7.68223 24.9051L5.68738 24.7615Z" fill="#044766" mask="url(#path-2-inside-1_53_200)"/>
</svg>
