<svg width="22" height="22" viewBox="0 0 22 22" fill="none" xmlns="http://www.w3.org/2000/svg">
<rect x="0.625" y="0.625" width="20.75" height="20.75" rx="1.375" fill="white"/>
<ellipse cx="10.9987" cy="7.33334" rx="3.66667" ry="3.66667" fill="#5DB03E" stroke="#044766" stroke-linecap="round"/>
<mask id="path-3-inside-1_61_90" fill="white">
<path fill-rule="evenodd" clip-rule="evenodd" d="M17.3891 16.9173C17.4179 17.1919 17.1913 17.4167 16.9152 17.4167H5.08186C4.80571 17.4167 4.57911 17.1919 4.60795 16.9173C4.90232 14.1137 7.65108 11.9167 10.9985 11.9167C14.346 11.9167 17.0947 14.1137 17.3891 16.9173Z"/>
</mask>
<path fill-rule="evenodd" clip-rule="evenodd" d="M17.3891 16.9173C17.4179 17.1919 17.1913 17.4167 16.9152 17.4167H5.08186C4.80571 17.4167 4.57911 17.1919 4.60795 16.9173C4.90232 14.1137 7.65108 11.9167 10.9985 11.9167C14.346 11.9167 17.0947 14.1137 17.3891 16.9173Z" fill="#5DB03E"/>
<path d="M4.60795 16.9173L3.61342 16.8129L4.60795 16.9173ZM17.3891 16.9173L16.3946 17.0217L17.3891 16.9173ZM16.9152 16.4167H5.08186V18.4167H16.9152V16.4167ZM5.60248 17.0217C5.8315 14.8406 8.0403 12.9167 10.9985 12.9167V10.9167C7.26187 10.9167 3.97314 13.3869 3.61342 16.8129L5.60248 17.0217ZM10.9985 12.9167C13.9568 12.9167 16.1655 14.8406 16.3946 17.0217L18.3836 16.8129C18.0239 13.3869 14.7352 10.9167 10.9985 10.9167V12.9167ZM5.08186 16.4167C5.32696 16.4167 5.64295 16.6363 5.60248 17.0217L3.61342 16.8129C3.51528 17.7475 4.28446 18.4167 5.08186 18.4167V16.4167ZM16.9152 18.4167C17.7126 18.4167 18.4818 17.7475 18.3836 16.8129L16.3946 17.0217C16.3541 16.6363 16.6701 16.4167 16.9152 16.4167V18.4167Z" fill="#044766" mask="url(#path-3-inside-1_61_90)"/>
<rect x="0.625" y="0.625" width="20.75" height="20.75" rx="1.375" stroke="#044766" stroke-width="1.25"/>
</svg>
