<svg width="12" height="12" viewBox="0 0 12 12" fill="none" xmlns="http://www.w3.org/2000/svg">
<path d="M0.972973 4.8C0.434595 4.8 0 5.336 0 6C0 6.664 0.434595 7.2 0.972973 7.2C1.51135 7.2 1.94595 6.664 1.94595 6C1.94595 5.336 1.51135 4.8 0.972973 4.8ZM0.972973 0C0.434595 0 0 0.536 0 1.2C0 1.864 0.434595 2.4 0.972973 2.4C1.51135 2.4 1.94595 1.864 1.94595 1.2C1.94595 0.536 1.51135 0 0.972973 0ZM0.972973 9.6C0.434595 9.6 0 10.144 0 10.8C0 11.456 0.441081 12 0.972973 12C1.50486 12 1.94595 11.456 1.94595 10.8C1.94595 10.144 1.51135 9.6 0.972973 9.6ZM2.91892 11.6H12V10H2.91892V11.6ZM2.91892 6.8H12V5.2H2.91892V6.8ZM2.91892 0.4V2H12V0.4H2.91892Z" fill="#044766" fill-opacity="0.75"/>
</svg>
