<svg width="22" height="24" viewBox="4 4 14 14" fill="none" xmlns="http://www.w3.org/2000/svg">
<g filter="url(#filter0_d_606_6337)">
<path d="M16.4167 7.91536V7.78203C16.4167 6.66193 16.4167 6.10187 16.1987 5.67405C16.0069 5.29773 15.701 4.99176 15.3246 4.80002C14.8968 4.58203 14.3368 4.58203 13.2167 4.58203H7.95C6.8299 4.58203 6.26984 4.58203 5.84202 4.80002C5.46569 4.99176 5.15973 5.29773 4.96799 5.67405C4.75 6.10187 4.75 6.66193 4.75 7.78203V9.71536C4.75 10.8355 4.75 11.3955 4.96799 11.8233C5.15973 12.1997 5.46569 12.5056 5.84202 12.6974C6.26984 12.9154 6.8299 12.9154 7.95 12.9154H12.25" stroke="#044766" stroke-linecap="round"/>
<path d="M7.25 10.418H10.5833" stroke="#044766" stroke-linecap="round"/>
<path d="M7.25 7.08203H13.0833" stroke="#044766" stroke-linecap="round"/>
<circle cx="15.5833" cy="11.2513" r="1.58333" stroke="#044766"/>
<path d="M17.2501 15.4154C17.2501 15.4154 16.8334 14.582 15.5834 14.582C14.3334 14.582 13.9167 15.4154 13.9167 15.4154" stroke="#044766" stroke-linecap="round"/>
</g>
<defs>
<filter id="filter0_d_606_6337" x="-3" y="0" width="28" height="28" filterUnits="userSpaceOnUse" color-interpolation-filters="sRGB">
<feFlood flood-opacity="0" result="BackgroundImageFix"/>
<feColorMatrix in="SourceAlpha" type="matrix" values="0 0 0 0 0 0 0 0 0 0 0 0 0 0 0 0 0 0 127 0" result="hardAlpha"/>
<feOffset dy="4"/>
<feGaussianBlur stdDeviation="2"/>
<feComposite in2="hardAlpha" operator="out"/>
<feColorMatrix type="matrix" values="0 0 0 0 0 0 0 0 0 0 0 0 0 0 0 0 0 0 0.25 0"/>
<feBlend mode="normal" in2="BackgroundImageFix" result="effect1_dropShadow_606_6337"/>
<feBlend mode="normal" in="SourceGraphic" in2="effect1_dropShadow_606_6337" result="shape"/>
</filter>
</defs>
</svg>
