<svg width="20" height="20" viewBox="1 1 18 18" fill="none" xmlns="http://www.w3.org/2000/svg">
<path d="M10.7292 4.16797V4.16797C8.33553 4.16797 7.13868 4.16797 6.23801 4.66369C5.57421 5.02904 5.02782 5.57543 4.66247 6.23923C4.16675 7.1399 4.16675 8.33675 4.16675 10.7305V13.8346C4.16675 14.7774 4.16675 15.2488 4.45964 15.5417C4.75253 15.8346 5.22394 15.8346 6.16675 15.8346H9.27091C11.6646 15.8346 12.8615 15.8346 13.7622 15.3389C14.426 14.9736 14.9723 14.4272 15.3377 13.7634C15.8334 12.8627 15.8334 11.6659 15.8334 9.27214V9.27214" stroke="#044766"/>
<path d="M7.5 8.33203L12.5 8.33203" stroke="#044766" stroke-linecap="round" stroke-linejoin="round"/>
<path d="M7.5 11.668H10" stroke="#044766" stroke-linecap="round" stroke-linejoin="round"/>
<path d="M15.8333 6.66797L15.8333 1.66797M13.3333 4.16797H18.3333" stroke="#044766" stroke-linecap="round" stroke-linejoin="round"/>
</svg>
