<svg width="20" height="20" viewBox="0 0 20 20" fill="none" xmlns="http://www.w3.org/2000/svg">
<path d="M3.75 11.5846C3.75 10.0209 3.75 9.23906 4.16329 8.70045C4.26969 8.56178 4.39381 8.43766 4.53248 8.33126C5.07109 7.91797 5.85295 7.91797 7.41667 7.91797H12.5833C14.147 7.91797 14.9289 7.91797 15.4675 8.33126C15.6062 8.43766 15.7303 8.56178 15.8367 8.70045C16.25 9.23906 16.25 10.0209 16.25 11.5846V11.5846C16.25 13.9302 16.25 15.103 15.6301 15.9109C15.4705 16.1189 15.2843 16.3051 15.0763 16.4647C14.2684 17.0846 13.0956 17.0846 10.75 17.0846H9.25C6.90442 17.0846 5.73164 17.0846 4.92372 16.4647C4.71572 16.3051 4.52954 16.1189 4.36994 15.9109C3.75 15.103 3.75 13.9302 3.75 11.5846V11.5846Z" stroke="#044766"/>
<path d="M13.75 7.91797V6.66797C13.75 4.5969 12.0711 2.91797 10 2.91797V2.91797C7.92893 2.91797 6.25 4.5969 6.25 6.66797V7.91797" stroke="#044766"/>
</svg>
