<svg width="20" height="20" viewBox="0 0 20 20" fill="none" xmlns="http://www.w3.org/2000/svg">
<path fill-rule="evenodd" clip-rule="evenodd" d="M13.3143 10.3608C13.3269 10.2427 13.3334 10.1227 13.3334 10.0013C13.3334 8.16035 11.841 6.66797 10.0001 6.66797C9.87864 6.66797 9.75871 6.67446 9.64063 6.68712L13.3143 10.3608ZM7.08833 8.37747C6.8198 8.85795 6.66675 9.41175 6.66675 10.0013C6.66675 11.8423 8.15913 13.3346 10.0001 13.3346C10.5896 13.3346 11.1434 13.1816 11.6239 12.913L10.0448 11.3339C10.0299 11.3344 10.015 11.3346 10.0001 11.3346C9.2637 11.3346 8.66675 10.7377 8.66675 10.0013C8.66675 9.98635 8.66699 9.97145 8.66748 9.95661L7.08833 8.37747Z" fill="#044766"/>
<path fill-rule="evenodd" clip-rule="evenodd" d="M13.664 14.952L12.1811 13.469C11.4742 13.8009 10.74 14 10.0001 14C8.82525 14 7.66518 13.4982 6.60534 12.7599C5.55181 12.0259 4.67347 11.1109 4.08353 10.414C3.98279 10.2949 3.90821 10.2067 3.84655 10.129C3.80006 10.0705 3.7702 10.0294 3.75064 10C3.7702 9.97061 3.80006 9.92954 3.84655 9.87099C3.90821 9.79333 3.98279 9.70507 4.08353 9.58605C4.60154 8.97404 5.34192 8.19395 6.22801 7.51595L4.80326 6.09121C3.85897 6.84425 3.09009 7.66406 2.55695 8.29393C2.53356 8.32158 2.50919 8.34999 2.48411 8.37922L2.4841 8.37924L2.4841 8.37924C2.16551 8.75068 1.73315 9.25478 1.73315 10C1.73315 10.7452 2.16551 11.2493 2.4841 11.6208L2.48412 11.6208C2.50919 11.65 2.53356 11.6784 2.55695 11.7061C3.20926 12.4767 4.21448 13.5318 5.46213 14.4009C6.70346 15.2657 8.26217 16 10.0001 16C11.3514 16 12.5943 15.556 13.664 14.952ZM7.46215 4.50745C8.24719 4.19715 9.09957 4 10.0001 4C11.7379 4 13.2966 4.73434 14.538 5.5991C15.7856 6.46825 16.7908 7.52326 17.4431 8.29393C17.4665 8.32157 17.4909 8.34998 17.516 8.37921L17.516 8.37924C17.8346 8.75068 18.2669 9.25478 18.2669 10C18.2669 10.7452 17.8346 11.2493 17.516 11.6208L17.5159 11.6209C17.4909 11.6501 17.4665 11.6784 17.4431 11.7061C17.0897 12.1237 16.6325 12.6248 16.0893 13.1346L14.6743 11.7196C15.1656 11.2628 15.5863 10.8042 15.9166 10.414C16.0173 10.2949 16.0919 10.2067 16.1536 10.129C16.2 10.0705 16.2299 10.0294 16.2495 10C16.2299 9.97061 16.2 9.92954 16.1536 9.87099C16.0919 9.79334 16.0173 9.70507 15.9166 9.58605C15.3266 8.88906 14.4483 7.97408 13.3948 7.24015C12.3349 6.50183 11.1748 6 10.0001 6C9.68448 6 9.36997 6.03621 9.05818 6.10349L7.46215 4.50745Z" fill="#044766"/>
<path d="M4.16675 1.66797L17.5001 15.0013" stroke="#044766" stroke-width="2"/>
</svg>
